# Blender 3.5.0
# www.blender.org
mtllib Robot9.mtl
o 立方体.006
v -0.300000 2.000000 -0.400000
v -0.300000 2.600000 -0.400000
v 0.300000 2.000000 -0.400000
v 0.300000 2.600000 -0.400000
v -0.300000 2.000000 0.400000
v -0.300000 2.600000 0.400000
v 0.300000 2.000000 0.400000
v 0.300000 2.600000 0.400000
vn -0.0000 -0.0000 -1.0000
vn 1.0000 -0.0000 -0.0000
vn -0.0000 -0.0000 1.0000
vn -1.0000 -0.0000 -0.0000
vn -0.0000 -1.0000 -0.0000
vn -0.0000 1.0000 -0.0000
vt 0.518212 0.256144
vt 0.333579 0.488450
vt 0.488450 0.440776
vt 0.518212 0.285905
vt 0.333579 0.518212
vt 0.440776 0.518212
vt 0.488450 0.256144
vt 0.285905 0.488450
vt 0.488450 0.411015
vt 0.488450 0.285905
vt 0.285905 0.518212
vt 0.440776 0.488450
vt 0.488450 0.333579
vt 0.363341 0.488450
vt 0.518212 0.440776
vt 0.488450 0.363341
vt 0.363341 0.518212
vt 0.411015 0.518212
vt 0.256144 0.488450
vt 0.518212 0.333579
vt 0.518212 0.411015
vt 0.256144 0.518212
vt 0.518212 0.363341
vt 0.411015 0.488450
s 0
usemtl マテリアル.025
f 1/1/1 2/4/1 4/10/1 3/7/1
f 3/8/2 4/11/2 8/22/2 7/19/2
f 7/20/3 8/23/3 6/16/3 5/13/3
f 5/14/4 6/17/4 2/5/4 1/2/4
f 3/9/5 7/21/5 5/15/5 1/3/5
f 8/24/6 4/12/6 2/6/6 6/18/6
