# Blender 3.5.0
# www.blender.org
mtllib Robot.mtl
o Cube
v 0.900000 2.450000 0.700000
v 0.900000 1.450000 0.700000
v -0.900000 2.450000 0.700000
v -0.900000 1.450000 0.700000
v 0.900000 2.450000 -0.700000
v 0.900000 1.450000 -0.700000
v -0.900000 2.450000 -0.700000
v -0.900000 1.450000 -0.700000
vn -0.0000 1.0000 -0.0000
vn -1.0000 -0.0000 -0.0000
vn -0.0000 -0.0000 -1.0000
vn -0.0000 -1.0000 -0.0000
vn -0.0000 -0.0000 1.0000
vn 1.0000 -0.0000 -0.0000
vt 0.178708 0.101272
vt 0.285905 0.053599
vt 0.101272 0.285905
vt 0.053599 0.256144
vt 0.285905 0.023837
vt 0.101272 0.256144
vt 0.178708 0.131034
vt 0.131034 0.208470
vt 0.256144 0.053599
vt 0.131034 0.178708
vt 0.053599 0.285905
vt 0.256144 0.023837
vt 0.208470 0.101272
vt 0.178708 0.208470
vt 0.131034 0.285905
vt 0.178708 0.178708
vt 0.023837 0.256144
vt 0.131034 0.256144
vt 0.208470 0.131034
vt 0.101272 0.208470
vt 0.208470 0.208470
vt 0.101272 0.178708
vt 0.208470 0.178708
vt 0.023837 0.285905
s 0
usemtl マテリアル.003
f 1/1/1 5/13/1 7/19/1 3/7/1
f 4/10/2 3/8/2 7/20/2 8/22/2
f 8/23/3 7/21/3 5/14/3 6/16/3
f 6/17/4 2/4/4 4/11/4 8/24/4
f 2/5/5 1/2/5 3/9/5 4/12/5
f 6/18/6 5/15/6 1/3/6 2/6/6
