# Blender 3.5.0
# www.blender.org
mtllib Stage1.mtl
o Cube
v 8.000000 6.000000 10.000000
v 8.000000 0.000000 10.000000
v 8.000000 6.000000 10.000000
v 8.000000 0.000000 10.000000
v 4.000000 6.000000 10.000000
v 4.000000 0.000000 10.000000
v 4.000000 6.000000 10.000000
v 4.000000 0.000000 10.000000
vn -0.0000 -0.0000 -0.0000
vn -0.0000 -0.0000 1.0000
vn -0.0000 -0.0000 -1.0000
vt 0.000000 1.000000
vt 0.000000 0.000000
vt -0.161414 1.003111
vt -0.161711 0.001236
vt 0.002946 1.554408
vt 1.000000 1.000000
vt 0.002054 -0.062851
vt 1.000000 0.000000
vt -0.161116 1.554706
vt -0.327976 1.003409
vt 1.075773 1.002219
vt -0.328273 0.001533
vt 1.075476 0.000344
vt -0.162008 -0.062554
s 0
usemtl Material
f 1/1/1 5/5/1 7/9/1 3/3/1
f 4/4/2 3/3/2 7/10/2 8/12/2
f 8/13/1 7/11/1 5/6/1 6/8/1
f 6/7/1 2/2/1 4/4/1 8/14/1
f 2/2/1 1/1/1 3/3/1 4/4/1
f 6/8/3 5/6/3 1/1/3 2/2/3
o Cube.001
v 0.000000 6.000000 10.000000
v 0.000000 0.000000 10.000000
v 0.000000 6.000000 10.000000
v 0.000000 0.000000 10.000000
v -8.000000 6.000000 10.000000
v -8.000000 0.000000 10.000000
v -8.000000 6.000000 10.000000
v -8.000000 0.000000 10.000000
vn -0.0000 -0.0000 -0.0000
vn -0.0000 -0.0000 1.0000
vn -0.0000 -0.0000 -1.0000
vt 0.000000 1.000000
vt -0.000000 0.000000
vt -0.163953 1.009486
vt -0.164172 -0.003091
vt 0.007828 1.384501
vt 1.000000 1.000000
vt 0.007172 -0.378545
vt 1.000000 0.000000
vt -0.163734 1.384720
vt -0.330515 1.009705
vt 1.168234 1.008829
vt -0.330734 -0.002873
vt 1.168015 -0.003748
vt -0.164391 -0.378326
s 0
usemtl Material.008
f 9/15/4 13/19/4 15/23/4 11/17/4
f 12/18/5 11/17/5 15/24/5 16/26/5
f 16/27/4 15/25/4 13/20/4 14/22/4
f 14/21/4 10/16/4 12/18/4 16/28/4
f 10/16/4 9/15/4 11/17/4 12/18/4
f 14/22/6 13/20/6 9/15/6 10/16/6
o Cube.002
v -8.000000 6.000000 2.000000
v -8.000000 0.000000 2.000000
v -8.000000 6.000000 10.000000
v -8.000000 0.000000 10.000000
v -8.000000 6.000000 2.000000
v -8.000000 0.000000 2.000000
v -8.000000 6.000000 10.000000
v -8.000000 0.000000 10.000000
vn -0.0000 -0.0000 -0.0000
vn -1.0000 -0.0000 -0.0000
vn 1.0000 -0.0000 -0.0000
vt 1.000109 1.000000
vt 0.999890 0.000000
vt 0.000000 1.000000
vt 0.000000 0.000000
vt 1.000328 1.372588
vt 1.166672 0.997135
vt 0.999672 -0.378545
vt 1.166453 -0.003529
vt 0.001266 1.372807
vt -0.268015 0.997792
vt 1.333234 0.996916
vt -0.268234 -0.002873
vt 1.333015 -0.003748
vt 0.000609 -0.378326
s 0
usemtl Material.009
f 17/29/7 21/33/7 23/37/7 19/31/7
f 20/32/7 19/31/7 23/38/7 24/40/7
f 24/41/8 23/39/8 21/34/8 22/36/8
f 22/35/7 18/30/7 20/32/7 24/42/7
f 18/30/9 17/29/9 19/31/9 20/32/9
f 22/36/7 21/34/7 17/29/7 18/30/7
o Cube.003
v -8.000000 6.000000 -10.000000
v -8.000000 0.000000 -10.000000
v -8.000000 6.000000 -2.000000
v -8.000000 0.000000 -2.000000
v -8.000000 6.000000 -10.000000
v -8.000000 0.000000 -10.000000
v -8.000000 6.000000 -2.000000
v -8.000000 0.000000 -2.000000
vn -0.0000 -0.0000 -0.0000
vn -1.0000 -0.0000 -0.0000
vn 1.0000 -0.0000 -0.0000
vt 1.000109 1.000000
vt 0.999890 0.000000
vt 0.000000 1.000000
vt 0.000000 0.000000
vt 1.000328 1.372588
vt 1.166672 0.997135
vt 0.999672 -0.378545
vt 1.166453 -0.003529
vt 0.001266 1.372807
vt -0.268015 0.997792
vt 1.333234 0.996916
vt -0.268234 -0.002873
vt 1.333015 -0.003748
vt 0.000609 -0.378326
s 0
usemtl Material.010
f 25/43/10 29/47/10 31/51/10 27/45/10
f 28/46/10 27/45/10 31/52/10 32/54/10
f 32/55/11 31/53/11 29/48/11 30/50/11
f 30/49/10 26/44/10 28/46/10 32/56/10
f 26/44/12 25/43/12 27/45/12 28/46/12
f 30/50/10 29/48/10 25/43/10 26/44/10
o Cube.004
v 0.000000 6.000000 -10.000000
v 0.000000 0.000000 -10.000000
v 0.000000 6.000000 -10.000000
v 0.000000 0.000000 -10.000000
v -8.000000 6.000000 -10.000000
v -8.000000 0.000000 -10.000000
v -8.000000 6.000000 -10.000000
v -8.000000 0.000000 -10.000000
vn -0.0000 -0.0000 -0.0000
vn -0.0000 -0.0000 1.0000
vn -0.0000 -0.0000 -1.0000
vt -0.000000 1.000000
vt -0.000000 0.000000
vt 1.000000 1.000000
vt -0.191453 1.010538
vt 1.000000 0.000000
vt -0.191672 -0.010100
vt -0.002172 1.385553
vt 1.000000 1.000000
vt -0.002828 -0.385553
vt 1.000000 0.000000
vt -0.191234 1.385772
vt 0.000000 1.000000
vt 1.168234 1.009881
vt 0.000000 0.000000
vt 1.168015 -0.010757
vt -0.191891 -0.385334
s 0
usemtl Material.011
f 33/57/13 37/63/13 39/67/13 35/60/13
f 36/61/14 35/59/14 39/68/14 40/70/14
f 40/71/13 39/69/13 37/64/13 38/66/13
f 38/65/13 34/58/13 36/62/13 40/72/13
f 34/58/13 33/57/13 35/60/13 36/62/13
f 38/66/15 37/64/15 33/57/15 34/58/15
o Cube.005
v 8.000000 6.000000 -10.000000
v 8.000000 0.000000 -10.000000
v 8.000000 6.000000 -10.000000
v 8.000000 0.000000 -10.000000
v 4.000000 6.000000 -10.000000
v 4.000000 0.000000 -10.000000
v 4.000000 6.000000 -10.000000
v 4.000000 0.000000 -10.000000
vn -0.0000 -0.0000 -0.0000
vn -0.0000 -0.0000 1.0000
vn -0.0000 -0.0000 -1.0000
vt -0.000000 1.000000
vt -0.000000 0.000000
vt 1.000000 1.000000
vt -0.191453 1.010538
vt 1.000000 0.000000
vt -0.191672 -0.010100
vt -0.002172 1.385553
vt 1.000000 1.000000
vt -0.002828 -0.385553
vt 1.000000 0.000000
vt -0.191234 1.385772
vt 0.000000 1.000000
vt 1.168234 1.009881
vt 0.000000 0.000000
vt 1.168015 -0.010757
vt -0.191891 -0.385334
s 0
usemtl Material.012
f 41/73/16 45/79/16 47/83/16 43/76/16
f 44/77/17 43/75/17 47/84/17 48/86/17
f 48/87/16 47/85/16 45/80/16 46/82/16
f 46/81/16 42/74/16 44/78/16 48/88/16
f 42/74/16 41/73/16 43/76/16 44/78/16
f 46/82/18 45/80/18 41/73/18 42/74/18
o Cube.006
v 8.000000 6.000000 -10.000000
v 8.000000 0.000000 -10.000000
v 8.000000 6.000000 -2.000000
v 8.000000 0.000000 -2.000000
v 8.000000 6.000000 -10.000000
v 8.000000 0.000000 -10.000000
v 8.000000 6.000000 -2.000000
v 8.000000 0.000000 -2.000000
vn -0.0000 -0.0000 -0.0000
vn -1.0000 -0.0000 -0.0000
vn 1.0000 -0.0000 -0.0000
vt 0.000000 1.000000
vt 0.000000 0.000000
vt -1.000000 1.000000
vt -1.000000 0.000000
vt 0.000000 1.384332
vt 0.000000 1.000000
vt 0.000000 -0.370149
vt 0.000000 0.000000
vt -1.000000 1.384551
vt -1.298736 1.000000
vt 1.000000 1.000000
vt -1.298955 0.000000
vt 1.000000 0.000000
vt -0.998297 -0.369930
s 0
usemtl Material.013
f 49/89/19 53/93/19 55/97/19 51/91/19
f 52/92/19 51/91/19 55/98/19 56/100/19
f 56/101/20 55/99/20 53/94/20 54/96/20
f 54/95/19 50/90/19 52/92/19 56/102/19
f 50/90/21 49/89/21 51/91/21 52/92/21
f 54/96/19 53/94/19 49/89/19 50/90/19
o Cube.007
v 8.000000 6.000000 2.000000
v 8.000000 0.000000 2.000000
v 8.000000 6.000000 10.000000
v 8.000000 0.000000 10.000000
v 8.000000 6.000000 2.000000
v 8.000000 0.000000 2.000000
v 8.000000 6.000000 10.000000
v 8.000000 0.000000 10.000000
vn -0.0000 -0.0000 -0.0000
vn -1.0000 -0.0000 -0.0000
vn 1.0000 -0.0000 -0.0000
vt 1.000000 1.000000
vt 1.000000 0.000000
vt 0.000000 1.000000
vt 0.000000 0.000000
vt 1.008381 1.366625
vt 0.000000 1.000000
vt 1.444472 1.000000
vt 0.000000 0.000000
vt 1.004681 -0.390451
vt 1.444472 0.000000
vt 0.004467 1.367859
vt -0.330004 0.993862
vt 1.000000 1.000000
vt -0.331238 -0.012754
vt 1.000000 0.000000
vt 0.000767 -0.389218
s 0
usemtl Material.014
f 57/103/22 61/107/22 63/113/22 59/105/22
f 60/106/22 59/105/22 63/114/22 64/116/22
f 64/117/23 63/115/23 61/108/23 62/110/23
f 62/111/22 58/104/22 60/106/22 64/118/22
f 58/104/24 57/103/24 59/105/24 60/106/24
f 62/112/22 61/109/22 57/103/22 58/104/22
