# Blender 3.5.0
# www.blender.org
mtllib Load5.mtl
o Cube
v -12.000000 6.000000 4.000000
v -12.000000 0.000000 4.000000
v -12.000000 6.000000 28.000000
v -12.000000 0.000000 28.000000
v -12.000000 6.000000 4.000000
v -12.000000 0.000000 4.000000
v -12.000000 6.000000 28.000000
v -12.000000 0.000000 28.000000
vn -0.0000 -0.0000 -0.0000
vn -1.0000 -0.0000 -0.0000
vn 1.0000 -0.0000 -0.0000
vt 3.000000 1.000000
vt 0.500398 1.000000
vt 3.000000 0.000000
vt 0.499604 0.000000
vt 0.333837 1.000000
vt 0.000000 1.000000
vt 0.333043 0.000000
vt 0.000000 0.000000
vt 0.501192 1.384330
vt 0.000000 1.000000
vt 0.666960 1.000000
vt 0.000000 0.000000
vt 0.498810 -0.398513
vt 0.666166 0.000000
vt 0.334631 1.385124
vt 0.167275 1.000000
vt 3.000000 1.000000
vt 0.166481 0.000000
vt 3.000000 0.000000
vt 0.332248 -0.397719
s 0
usemtl Material
f 1/2/1 5/9/1 7/15/1 3/5/1
f 4/7/1 3/5/1 7/16/1 8/18/1
f 8/19/2 7/17/2 5/10/2 6/12/2
f 6/13/1 2/4/1 4/7/1 8/20/1
f 2/3/3 1/1/3 3/6/3 4/8/3
f 6/14/1 5/11/1 1/2/1 2/4/1
o Cube.001
v 12.000000 6.000000 -40.000000
v 12.000000 0.000000 -40.000000
v 12.000000 6.000000 -40.000000
v 12.000000 0.000000 -40.000000
v -12.000000 6.000000 -40.000000
v -12.000000 0.000000 -40.000000
v -12.000000 6.000000 -40.000000
v -12.000000 0.000000 -40.000000
vn -0.0000 -0.0000 -0.0000
vn -0.0000 -0.0000 1.0000
vn -0.0000 -0.0000 -1.0000
vt 0.500398 1.000000
vt 0.000000 1.000000
vt 0.499604 0.000000
vt 0.000000 0.000000
vt 3.000000 1.000000
vt 0.333837 1.000000
vt 3.000000 0.000000
vt 0.333043 0.000000
vt 0.501192 1.384330
vt 0.666960 1.000000
vt 3.000000 1.000000
vt 0.666166 0.000000
vt 0.498810 -0.398513
vt 3.000000 0.000000
vt 0.334631 1.385124
vt 0.000000 1.000000
vt 0.833521 1.000000
vt 0.000000 0.000000
vt 0.832727 0.000000
vt 0.332248 -0.397719
s 0
usemtl Material.001
f 9/21/4 13/29/4 15/35/4 11/26/4
f 12/27/5 11/25/5 15/36/5 16/38/5
f 16/39/4 15/37/4 13/30/4 14/32/4
f 14/33/4 10/23/4 12/28/4 16/40/4
f 10/23/4 9/21/4 11/26/4 12/28/4
f 14/34/6 13/31/6 9/22/6 10/24/6
o Cube.003
v 12.000000 6.000000 -44.000000
v 12.000000 0.000000 -44.000000
v 12.000000 6.000000 -44.000000
v 12.000000 0.000000 -44.000000
v 4.000000 6.000000 -44.000000
v 4.000000 0.000000 -44.000000
v 4.000000 6.000000 -44.000000
v 4.000000 0.000000 -44.000000
vn -0.0000 -0.0000 -0.0000
vn -0.0000 -0.0000 1.0000
vn -0.0000 -0.0000 -1.0000
vt 0.500398 1.000000
vt 0.000000 1.000000
vt 0.499604 0.000000
vt 0.000000 0.000000
vt 1.000000 1.000000
vt 0.333837 1.000000
vt 1.000000 0.000000
vt 0.333043 0.000000
vt 0.501192 1.384330
vt 0.666960 1.000000
vt 1.000000 1.000000
vt 0.666166 0.000000
vt 0.498810 -0.398513
vt 1.000000 0.000000
vt 0.334631 1.385124
vt 0.000000 1.000000
vt 0.833521 1.000000
vt 0.000000 0.000000
vt 0.832727 0.000000
vt 0.332248 -0.397719
s 0
usemtl Material.003
f 17/41/7 21/49/7 23/55/7 19/46/7
f 20/47/8 19/45/8 23/56/8 24/58/8
f 24/59/7 23/57/7 21/50/7 22/52/7
f 22/53/7 18/43/7 20/48/7 24/60/7
f 18/43/7 17/41/7 19/46/7 20/48/7
f 22/54/9 21/51/9 17/42/9 18/44/9
o Cube.004
v 0.000000 6.000000 -44.000000
v 0.000000 0.000000 -44.000000
v 0.000000 6.000000 -44.000000
v 0.000000 0.000000 -44.000000
v -8.000000 6.000000 -44.000000
v -8.000000 0.000000 -44.000000
v -8.000000 6.000000 -44.000000
v -8.000000 0.000000 -44.000000
vn -0.0000 -0.0000 -0.0000
vn -0.0000 -0.0000 1.0000
vn -0.0000 -0.0000 -1.0000
vt 0.500398 1.000000
vt 0.000000 1.000000
vt 0.499604 0.000000
vt 0.000000 0.000000
vt 1.000000 1.000000
vt 0.333837 1.000000
vt 1.000000 0.000000
vt 0.333043 0.000000
vt 0.501192 1.384330
vt 0.666960 1.000000
vt 1.000000 1.000000
vt 0.666166 0.000000
vt 0.498810 -0.398513
vt 1.000000 0.000000
vt 0.334631 1.385124
vt 0.000000 1.000000
vt 0.833521 1.000000
vt 0.000000 0.000000
vt 0.832727 0.000000
vt 0.332248 -0.397719
s 0
usemtl Material.004
f 25/61/10 29/69/10 31/75/10 27/66/10
f 28/67/11 27/65/11 31/76/11 32/78/11
f 32/79/10 31/77/10 29/70/10 30/72/10
f 30/73/10 26/63/10 28/68/10 32/80/10
f 26/63/10 25/61/10 27/66/10 28/68/10
f 30/74/12 29/71/12 25/62/12 26/64/12
o Cube.002
v -16.000000 6.000000 -44.000000
v -16.000000 0.000000 -44.000000
v -16.000000 6.000000 32.000000
v -16.000000 0.000000 32.000000
v -16.000000 6.000000 -44.000000
v -16.000000 0.000000 -44.000000
v -16.000000 6.000000 32.000000
v -16.000000 0.000000 32.000000
vn -0.0000 -0.0000 -0.0000
vn -1.0000 -0.0000 -0.0000
vn 1.0000 -0.0000 -0.0000
vt 10.000000 1.000000
vt 0.500398 1.000000
vt 10.000000 0.000000
vt 0.499604 0.000000
vt 0.333837 1.000000
vt 0.490000 1.000000
vt 0.333043 0.000000
vt 0.490000 0.000000
vt 0.501192 1.384330
vt 0.490000 1.000000
vt 0.666960 1.000000
vt 0.490000 0.000000
vt 0.498810 -0.398513
vt 0.666166 0.000000
vt 0.334631 1.385124
vt 0.167275 1.000000
vt 10.000000 1.000000
vt 0.166481 0.000000
vt 10.000000 0.000000
vt 0.332248 -0.397719
s 0
usemtl Material.005
f 33/82/13 37/89/13 39/95/13 35/85/13
f 36/87/13 35/85/13 39/96/13 40/98/13
f 40/99/14 39/97/14 37/90/14 38/92/14
f 38/93/13 34/84/13 36/87/13 40/100/13
f 34/83/15 33/81/15 35/86/15 36/88/15
f 38/94/13 37/91/13 33/82/13 34/84/13
o Cube.005
v -4.000000 6.000000 0.000000
v -4.000000 0.000000 0.000000
v -4.000000 6.000000 0.000000
v -4.000000 0.000000 0.000000
v -12.000000 6.000000 0.000000
v -12.000000 0.000000 0.000000
v -12.000000 6.000000 0.000000
v -12.000000 0.000000 0.000000
vn -0.0000 -0.0000 -0.0000
vn -0.0000 -0.0000 1.0000
vn -0.0000 -0.0000 -1.0000
vt 0.500398 1.000000
vt 0.000000 1.000000
vt 0.499604 0.000000
vt 0.000000 0.000000
vt 1.000000 1.000000
vt 0.333837 1.000000
vt 1.000000 0.000000
vt 0.333043 0.000000
vt 0.501192 1.384330
vt 0.666960 1.000000
vt 1.000000 1.000000
vt 0.666166 0.000000
vt 0.498810 -0.398513
vt 1.000000 0.000000
vt 0.334631 1.385124
vt 0.000000 1.000000
vt 0.833521 1.000000
vt 0.000000 0.000000
vt 0.832727 0.000000
vt 0.332248 -0.397719
s 0
usemtl Material.006
f 41/101/16 45/109/16 47/115/16 43/106/16
f 44/107/17 43/105/17 47/116/17 48/118/17
f 48/119/16 47/117/16 45/110/16 46/112/16
f 46/113/16 42/103/16 44/108/16 48/120/16
f 42/103/16 41/101/16 43/106/16 44/108/16
f 46/114/18 45/111/18 41/102/18 42/104/18
o Cube.006
v -4.000000 6.000000 4.000000
v -4.000000 0.000000 4.000000
v -4.000000 6.000000 4.000000
v -4.000000 0.000000 4.000000
v -12.000000 6.000000 4.000000
v -12.000000 0.000000 4.000000
v -12.000000 6.000000 4.000000
v -12.000000 0.000000 4.000000
vn -0.0000 -0.0000 -0.0000
vn -0.0000 -0.0000 1.0000
vn -0.0000 -0.0000 -1.0000
vt 0.500398 1.000000
vt 0.000000 1.000000
vt 0.499604 0.000000
vt 0.000000 0.000000
vt 1.000000 1.000000
vt 0.333837 1.000000
vt 1.000000 0.000000
vt 0.333043 0.000000
vt 0.501192 1.384330
vt 0.666960 1.000000
vt 1.000000 1.000000
vt 0.666166 0.000000
vt 0.498810 -0.398513
vt 1.000000 0.000000
vt 0.334631 1.385124
vt 0.000000 1.000000
vt 0.833521 1.000000
vt 0.000000 0.000000
vt 0.832727 0.000000
vt 0.332248 -0.397719
s 0
usemtl Material.007
f 49/121/19 53/129/19 55/135/19 51/126/19
f 52/127/20 51/125/20 55/136/20 56/138/20
f 56/139/19 55/137/19 53/130/19 54/132/19
f 54/133/19 50/123/19 52/128/19 56/140/19
f 50/123/19 49/121/19 51/126/19 52/128/19
f 54/134/21 53/131/21 49/122/21 50/124/21
o Cube.007
v -12.000000 6.000000 -40.000000
v -12.000000 0.000000 -40.000000
v -12.000000 6.000000 0.000000
v -12.000000 0.000000 0.000000
v -12.000000 6.000000 -40.000000
v -12.000000 0.000000 -40.000000
v -12.000000 6.000000 0.000000
v -12.000000 0.000000 0.000000
vn -0.0000 -0.0000 -0.0000
vn -1.0000 -0.0000 -0.0000
vn 1.0000 -0.0000 -0.0000
vt 5.000000 1.000000
vt 0.500398 1.000000
vt 5.000000 0.000000
vt 0.499604 0.000000
vt 0.333837 1.000000
vt 0.000000 1.000000
vt 0.333043 0.000000
vt 0.000000 0.000000
vt 0.501192 1.384330
vt 0.000000 1.000000
vt 0.666960 1.000000
vt 0.000000 0.000000
vt 0.498810 -0.398513
vt 0.666166 0.000000
vt 0.334631 1.385124
vt 0.167275 1.000000
vt 5.000000 1.000000
vt 0.166481 0.000000
vt 5.000000 0.000000
vt 0.332248 -0.397719
s 0
usemtl Material.008
f 57/142/22 61/149/22 63/155/22 59/145/22
f 60/147/22 59/145/22 63/156/22 64/158/22
f 64/159/23 63/157/23 61/150/23 62/152/23
f 62/153/22 58/144/22 60/147/22 64/160/22
f 58/143/24 57/141/24 59/146/24 60/148/24
f 62/154/22 61/151/22 57/142/22 58/144/22
o Cube.008
v -8.000000 6.000000 -48.000000
v -8.000000 0.000000 -48.000000
v -8.000000 6.000000 -44.000000
v -8.000000 0.000000 -44.000000
v -8.000000 6.000000 -48.000000
v -8.000000 0.000000 -48.000000
v -8.000000 6.000000 -44.000000
v -8.000000 0.000000 -44.000000
vn -0.0000 -0.0000 -0.0000
vn -1.0000 -0.0000 -0.0000
vn 1.0000 -0.0000 -0.0000
vt 1.000000 1.000000
vt 0.500398 1.000000
vt 1.000000 0.000000
vt 0.499604 0.000000
vt 0.333837 1.000000
vt 0.490000 1.000000
vt 0.333043 0.000000
vt 0.490000 0.000000
vt 0.501192 1.384330
vt 0.490000 1.000000
vt 0.666960 1.000000
vt 0.490000 0.000000
vt 0.498810 -0.398513
vt 0.666166 0.000000
vt 0.334631 1.385124
vt 0.167275 1.000000
vt 1.000000 1.000000
vt 0.166481 0.000000
vt 1.000000 0.000000
vt 0.332248 -0.397719
s 0
usemtl Material.009
f 65/162/25 69/169/25 71/175/25 67/165/25
f 68/167/25 67/165/25 71/176/25 72/178/25
f 72/179/26 71/177/26 69/170/26 70/172/26
f 70/173/25 66/164/25 68/167/25 72/180/25
f 66/163/27 65/161/27 67/166/27 68/168/27
f 70/174/25 69/171/25 65/162/25 66/164/25
o Cube.009
v -12.000000 6.000000 -44.000000
v -12.000000 0.000000 -44.000000
v -12.000000 6.000000 -44.000000
v -12.000000 0.000000 -44.000000
v -16.000000 6.000000 -44.000000
v -16.000000 0.000000 -44.000000
v -16.000000 6.000000 -44.000000
v -16.000000 0.000000 -44.000000
vn -0.0000 -0.0000 -0.0000
vn -0.0000 -0.0000 1.0000
vn -0.0000 -0.0000 -1.0000
vt 0.500398 1.000000
vt 0.490000 1.000000
vt 0.499604 0.000000
vt 0.490000 0.000000
vt 1.000000 1.000000
vt 0.333837 1.000000
vt 1.000000 0.000000
vt 0.333043 0.000000
vt 0.501192 1.384330
vt 0.666960 1.000000
vt 1.000000 1.000000
vt 0.666166 0.000000
vt 0.498810 -0.398513
vt 1.000000 0.000000
vt 0.334631 1.385124
vt 0.490000 1.000000
vt 0.833521 1.000000
vt 0.490000 0.000000
vt 0.832727 0.000000
vt 0.332248 -0.397719
s 0
usemtl Material.010
f 73/181/28 77/189/28 79/195/28 75/186/28
f 76/187/29 75/185/29 79/196/29 80/198/29
f 80/199/28 79/197/28 77/190/28 78/192/28
f 78/193/28 74/183/28 76/188/28 80/200/28
f 74/183/28 73/181/28 75/186/28 76/188/28
f 78/194/30 77/191/30 73/182/30 74/184/30
o Cube.010
v -12.000000 6.000000 -48.000000
v -12.000000 0.000000 -48.000000
v -12.000000 6.000000 -44.000000
v -12.000000 0.000000 -44.000000
v -12.000000 6.000000 -48.000000
v -12.000000 0.000000 -48.000000
v -12.000000 6.000000 -44.000000
v -12.000000 0.000000 -44.000000
vn -0.0000 -0.0000 -0.0000
vn -1.0000 -0.0000 -0.0000
vn 1.0000 -0.0000 -0.0000
vt 1.000000 1.000000
vt 0.500398 1.000000
vt 1.000000 0.000000
vt 0.499604 0.000000
vt 0.333837 1.000000
vt 0.490000 1.000000
vt 0.333043 0.000000
vt 0.490000 0.000000
vt 0.501192 1.384330
vt 0.490000 1.000000
vt 0.666960 1.000000
vt 0.490000 0.000000
vt 0.498810 -0.398513
vt 0.666166 0.000000
vt 0.334631 1.385124
vt 0.167275 1.000000
vt 1.000000 1.000000
vt 0.166481 0.000000
vt 1.000000 0.000000
vt 0.332248 -0.397719
s 0
usemtl Material.011
f 81/202/31 85/209/31 87/215/31 83/205/31
f 84/207/31 83/205/31 87/216/31 88/218/31
f 88/219/32 87/217/32 85/210/32 86/212/32
f 86/213/31 82/204/31 84/207/31 88/220/31
f 82/203/33 81/201/33 83/206/33 84/208/33
f 86/214/31 85/211/31 81/202/31 82/204/31
o Cube.011
v 4.000000 6.000000 -48.000000
v 4.000000 0.000000 -48.000000
v 4.000000 6.000000 -44.000000
v 4.000000 0.000000 -44.000000
v 4.000000 6.000000 -48.000000
v 4.000000 0.000000 -48.000000
v 4.000000 6.000000 -44.000000
v 4.000000 0.000000 -44.000000
vn -0.0000 -0.0000 -0.0000
vn -1.0000 -0.0000 -0.0000
vn 1.0000 -0.0000 -0.0000
vt 1.000000 1.000000
vt 0.500398 1.000000
vt 1.000000 0.000000
vt 0.499604 0.000000
vt 0.333837 1.000000
vt 0.490000 1.000000
vt 0.333043 0.000000
vt 0.490000 0.000000
vt 0.501192 1.384330
vt 0.490000 1.000000
vt 0.666960 1.000000
vt 0.490000 0.000000
vt 0.498810 -0.398513
vt 0.666166 0.000000
vt 0.334631 1.385124
vt 0.167275 1.000000
vt 1.000000 1.000000
vt 0.166481 0.000000
vt 1.000000 0.000000
vt 0.332248 -0.397719
s 0
usemtl Material.012
f 89/222/34 93/229/34 95/235/34 91/225/34
f 92/227/34 91/225/34 95/236/34 96/238/34
f 96/239/35 95/237/35 93/230/35 94/232/35
f 94/233/34 90/224/34 92/227/34 96/240/34
f 90/223/36 89/221/36 91/226/36 92/228/36
f 94/234/34 93/231/34 89/222/34 90/224/34
o Cube.012
v 0.000000 6.000000 -48.000000
v 0.000000 0.000000 -48.000000
v 0.000000 6.000000 -44.000000
v 0.000000 0.000000 -44.000000
v 0.000000 6.000000 -48.000000
v 0.000000 0.000000 -48.000000
v 0.000000 6.000000 -44.000000
v 0.000000 0.000000 -44.000000
vn -0.0000 -0.0000 -0.0000
vn -1.0000 -0.0000 -0.0000
vn 1.0000 -0.0000 -0.0000
vt 1.000000 1.000000
vt 0.500398 1.000000
vt 1.000000 0.000000
vt 0.499604 0.000000
vt 0.333837 1.000000
vt 0.490000 1.000000
vt 0.333043 0.000000
vt 0.490000 0.000000
vt 0.501192 1.384330
vt 0.490000 1.000000
vt 0.666960 1.000000
vt 0.490000 0.000000
vt 0.498810 -0.398513
vt 0.666166 0.000000
vt 0.334631 1.385124
vt 0.167275 1.000000
vt 1.000000 1.000000
vt 0.166481 0.000000
vt 1.000000 0.000000
vt 0.332248 -0.397719
s 0
usemtl Material.013
f 97/242/37 101/249/37 103/255/37 99/245/37
f 100/247/37 99/245/37 103/256/37 104/258/37
f 104/259/38 103/257/38 101/250/38 102/252/38
f 102/253/37 98/244/37 100/247/37 104/260/37
f 98/243/39 97/241/39 99/246/39 100/248/39
f 102/254/37 101/251/37 97/242/37 98/244/37
o Cube.013
v 12.000000 6.000000 32.000000
v 12.000000 0.000000 32.000000
v 12.000000 6.000000 32.000000
v 12.000000 0.000000 32.000000
v -16.000000 6.000000 32.000000
v -16.000000 0.000000 32.000000
v -16.000000 6.000000 32.000000
v -16.000000 0.000000 32.000000
vn -0.0000 -0.0000 -0.0000
vn -0.0000 -0.0000 1.0000
vn -0.0000 -0.0000 -1.0000
vt 0.500398 1.000000
vt 0.490000 1.000000
vt 0.499604 0.000000
vt 0.490000 0.000000
vt 4.000000 1.000000
vt 0.333837 1.000000
vt 4.000000 0.000000
vt 0.333043 0.000000
vt 0.501192 1.384330
vt 0.666960 1.000000
vt 4.000000 1.000000
vt 0.666166 0.000000
vt 0.498810 -0.398513
vt 4.000000 0.000000
vt 0.334631 1.385124
vt 0.490000 1.000000
vt 0.833521 1.000000
vt 0.490000 0.000000
vt 0.832727 0.000000
vt 0.332248 -0.397719
s 0
usemtl Material.014
f 105/261/40 109/269/40 111/275/40 107/266/40
f 108/267/41 107/265/41 111/276/41 112/278/41
f 112/279/40 111/277/40 109/270/40 110/272/40
f 110/273/40 106/263/40 108/268/40 112/280/40
f 106/263/40 105/261/40 107/266/40 108/268/40
f 110/274/42 109/271/42 105/262/42 106/264/42
o Cube.014
v 12.000000 6.000000 28.000000
v 12.000000 0.000000 28.000000
v 12.000000 6.000000 28.000000
v 12.000000 0.000000 28.000000
v -12.000000 6.000000 28.000000
v -12.000000 0.000000 28.000000
v -12.000000 6.000000 28.000000
v -12.000000 0.000000 28.000000
vn -0.0000 -0.0000 -0.0000
vn -0.0000 -0.0000 1.0000
vn -0.0000 -0.0000 -1.0000
vt 0.500398 1.000000
vt 0.000000 1.000000
vt 0.499604 0.000000
vt 0.000000 0.000000
vt 3.000000 1.000000
vt 0.333837 1.000000
vt 3.000000 0.000000
vt 0.333043 0.000000
vt 0.501192 1.384330
vt 0.666960 1.000000
vt 3.000000 1.000000
vt 0.666166 0.000000
vt 0.498810 -0.398513
vt 3.000000 0.000000
vt 0.334631 1.385124
vt 0.000000 1.000000
vt 0.833521 1.000000
vt 0.000000 0.000000
vt 0.832727 0.000000
vt 0.332248 -0.397719
s 0
usemtl Material.015
f 113/281/43 117/289/43 119/295/43 115/286/43
f 116/287/44 115/285/44 119/296/44 120/298/44
f 120/299/43 119/297/43 117/290/43 118/292/43
f 118/293/43 114/283/43 116/288/43 120/300/43
f 114/283/43 113/281/43 115/286/43 116/288/43
f 118/294/45 117/291/45 113/282/45 114/284/45
