# Blender 3.5.0
# www.blender.org
mtllib Load5.mtl
o Cube
v -12.000000 6.000000 4.000000
v -12.000000 0.000000 4.000000
v -12.000000 6.000000 28.000000
v -12.000000 0.000000 28.000000
v -12.000000 6.000000 4.000000
v -12.000000 0.000000 4.000000
v -12.000000 6.000000 28.000000
v -12.000000 0.000000 28.000000
vn -0.0000 -0.0000 -0.0000
vn -1.0000 -0.0000 -0.0000
vn 1.0000 -0.0000 -0.0000
vt 0.625000 0.500000
vt 0.375000 0.500000
vt 0.625000 0.750000
vt 0.375000 0.750000
vt 0.875000 0.500000
vt 0.625000 0.250000
vt 0.125000 0.500000
vt 0.375000 0.250000
vt 0.875000 0.750000
vt 0.625000 1.000000
vt 0.625000 0.000000
vt 0.375000 1.000000
vt 0.375000 0.000000
vt 0.125000 0.750000
s 0
usemtl Material
f 1/1/1 5/5/1 7/9/1 3/3/1
f 4/4/1 3/3/1 7/10/1 8/12/1
f 8/13/2 7/11/2 5/6/2 6/8/2
f 6/7/1 2/2/1 4/4/1 8/14/1
f 2/2/3 1/1/3 3/3/3 4/4/3
f 6/8/1 5/6/1 1/1/1 2/2/1
o Cube.001
v 12.000000 6.000000 -40.000000
v 12.000000 0.000000 -40.000000
v 12.000000 6.000000 -40.000000
v 12.000000 0.000000 -40.000000
v -12.000000 6.000000 -40.000000
v -12.000000 0.000000 -40.000000
v -12.000000 6.000000 -40.000000
v -12.000000 0.000000 -40.000000
vn -0.0000 -0.0000 -0.0000
vn -0.0000 -0.0000 1.0000
vn -0.0000 -0.0000 -1.0000
vt 0.625000 0.500000
vt 0.375000 0.500000
vt 0.625000 0.750000
vt 0.375000 0.750000
vt 0.875000 0.500000
vt 0.625000 0.250000
vt 0.125000 0.500000
vt 0.375000 0.250000
vt 0.875000 0.750000
vt 0.625000 1.000000
vt 0.625000 0.000000
vt 0.375000 1.000000
vt 0.375000 0.000000
vt 0.125000 0.750000
s 0
usemtl Material.001
f 9/15/4 13/19/4 15/23/4 11/17/4
f 12/18/5 11/17/5 15/24/5 16/26/5
f 16/27/4 15/25/4 13/20/4 14/22/4
f 14/21/4 10/16/4 12/18/4 16/28/4
f 10/16/4 9/15/4 11/17/4 12/18/4
f 14/22/6 13/20/6 9/15/6 10/16/6
o Cube.003
v 12.000000 6.000000 -44.000000
v 12.000000 0.000000 -44.000000
v 12.000000 6.000000 -44.000000
v 12.000000 0.000000 -44.000000
v 4.000000 6.000000 -44.000000
v 4.000000 0.000000 -44.000000
v 4.000000 6.000000 -44.000000
v 4.000000 0.000000 -44.000000
vn -0.0000 -0.0000 -0.0000
vn -0.0000 -0.0000 1.0000
vn -0.0000 -0.0000 -1.0000
vt 0.625000 0.500000
vt 0.375000 0.500000
vt 0.625000 0.750000
vt 0.375000 0.750000
vt 0.875000 0.500000
vt 0.625000 0.250000
vt 0.125000 0.500000
vt 0.375000 0.250000
vt 0.875000 0.750000
vt 0.625000 1.000000
vt 0.625000 0.000000
vt 0.375000 1.000000
vt 0.375000 0.000000
vt 0.125000 0.750000
s 0
usemtl Material.003
f 17/29/7 21/33/7 23/37/7 19/31/7
f 20/32/8 19/31/8 23/38/8 24/40/8
f 24/41/7 23/39/7 21/34/7 22/36/7
f 22/35/7 18/30/7 20/32/7 24/42/7
f 18/30/7 17/29/7 19/31/7 20/32/7
f 22/36/9 21/34/9 17/29/9 18/30/9
o Cube.004
v 0.000000 6.000000 -44.000000
v 0.000000 0.000000 -44.000000
v 0.000000 6.000000 -44.000000
v 0.000000 0.000000 -44.000000
v -8.000000 6.000000 -44.000000
v -8.000000 0.000000 -44.000000
v -8.000000 6.000000 -44.000000
v -8.000000 0.000000 -44.000000
vn -0.0000 -0.0000 -0.0000
vn -0.0000 -0.0000 1.0000
vn -0.0000 -0.0000 -1.0000
vt 0.625000 0.500000
vt 0.375000 0.500000
vt 0.625000 0.750000
vt 0.375000 0.750000
vt 0.875000 0.500000
vt 0.625000 0.250000
vt 0.125000 0.500000
vt 0.375000 0.250000
vt 0.875000 0.750000
vt 0.625000 1.000000
vt 0.625000 0.000000
vt 0.375000 1.000000
vt 0.375000 0.000000
vt 0.125000 0.750000
s 0
usemtl Material.004
f 25/43/10 29/47/10 31/51/10 27/45/10
f 28/46/11 27/45/11 31/52/11 32/54/11
f 32/55/10 31/53/10 29/48/10 30/50/10
f 30/49/10 26/44/10 28/46/10 32/56/10
f 26/44/10 25/43/10 27/45/10 28/46/10
f 30/50/12 29/48/12 25/43/12 26/44/12
o Cube.002
v -16.000000 6.000000 -44.000000
v -16.000000 0.000000 -44.000000
v -16.000000 6.000000 32.000000
v -16.000000 0.000000 32.000000
v -16.000000 6.000000 -44.000000
v -16.000000 0.000000 -44.000000
v -16.000000 6.000000 32.000000
v -16.000000 0.000000 32.000000
vn -0.0000 -0.0000 -0.0000
vn -1.0000 -0.0000 -0.0000
vn 1.0000 -0.0000 -0.0000
vt 0.625000 0.500000
vt 0.375000 0.500000
vt 0.625000 0.750000
vt 0.375000 0.750000
vt 0.875000 0.500000
vt 0.625000 0.250000
vt 0.125000 0.500000
vt 0.375000 0.250000
vt 0.875000 0.750000
vt 0.625000 1.000000
vt 0.625000 0.000000
vt 0.375000 1.000000
vt 0.375000 0.000000
vt 0.125000 0.750000
s 0
usemtl Material.005
f 33/57/13 37/61/13 39/65/13 35/59/13
f 36/60/13 35/59/13 39/66/13 40/68/13
f 40/69/14 39/67/14 37/62/14 38/64/14
f 38/63/13 34/58/13 36/60/13 40/70/13
f 34/58/15 33/57/15 35/59/15 36/60/15
f 38/64/13 37/62/13 33/57/13 34/58/13
o Cube.005
v -4.000000 7.000000 0.000000
v -4.000000 -1.000000 0.000000
v -4.000000 7.000000 0.000000
v -4.000000 -1.000000 0.000000
v -12.000000 7.000000 0.000000
v -12.000000 -1.000000 0.000000
v -12.000000 7.000000 0.000000
v -12.000000 -1.000000 0.000000
vn -0.0000 -0.0000 -0.0000
vn -0.0000 -0.0000 1.0000
vn -0.0000 -0.0000 -1.0000
vt 0.625000 0.500000
vt 0.375000 0.500000
vt 0.625000 0.750000
vt 0.375000 0.750000
vt 0.875000 0.500000
vt 0.625000 0.250000
vt 0.125000 0.500000
vt 0.375000 0.250000
vt 0.875000 0.750000
vt 0.625000 1.000000
vt 0.625000 0.000000
vt 0.375000 1.000000
vt 0.375000 0.000000
vt 0.125000 0.750000
s 0
usemtl Material.006
f 41/71/16 45/75/16 47/79/16 43/73/16
f 44/74/17 43/73/17 47/80/17 48/82/17
f 48/83/16 47/81/16 45/76/16 46/78/16
f 46/77/16 42/72/16 44/74/16 48/84/16
f 42/72/16 41/71/16 43/73/16 44/74/16
f 46/78/18 45/76/18 41/71/18 42/72/18
o Cube.006
v -4.000000 6.000000 4.000000
v -4.000000 0.000000 4.000000
v -4.000000 6.000000 4.000000
v -4.000000 0.000000 4.000000
v -12.000000 6.000000 4.000000
v -12.000000 0.000000 4.000000
v -12.000000 6.000000 4.000000
v -12.000000 0.000000 4.000000
vn -0.0000 -0.0000 -0.0000
vn -0.0000 -0.0000 1.0000
vn -0.0000 -0.0000 -1.0000
vt 0.625000 0.500000
vt 0.375000 0.500000
vt 0.625000 0.750000
vt 0.375000 0.750000
vt 0.875000 0.500000
vt 0.625000 0.250000
vt 0.125000 0.500000
vt 0.375000 0.250000
vt 0.875000 0.750000
vt 0.625000 1.000000
vt 0.625000 0.000000
vt 0.375000 1.000000
vt 0.375000 0.000000
vt 0.125000 0.750000
s 0
usemtl Material.007
f 49/85/19 53/89/19 55/93/19 51/87/19
f 52/88/20 51/87/20 55/94/20 56/96/20
f 56/97/19 55/95/19 53/90/19 54/92/19
f 54/91/19 50/86/19 52/88/19 56/98/19
f 50/86/19 49/85/19 51/87/19 52/88/19
f 54/92/21 53/90/21 49/85/21 50/86/21
o Cube.007
v -12.000000 6.000000 -40.000000
v -12.000000 0.000000 -40.000000
v -12.000000 6.000000 0.000000
v -12.000000 0.000000 0.000000
v -12.000000 6.000000 -40.000000
v -12.000000 0.000000 -40.000000
v -12.000000 6.000000 0.000000
v -12.000000 0.000000 0.000000
vn -0.0000 -0.0000 -0.0000
vn -1.0000 -0.0000 -0.0000
vn 1.0000 -0.0000 -0.0000
vt 0.625000 0.500000
vt 0.375000 0.500000
vt 0.625000 0.750000
vt 0.375000 0.750000
vt 0.875000 0.500000
vt 0.625000 0.250000
vt 0.125000 0.500000
vt 0.375000 0.250000
vt 0.875000 0.750000
vt 0.625000 1.000000
vt 0.625000 0.000000
vt 0.375000 1.000000
vt 0.375000 0.000000
vt 0.125000 0.750000
s 0
usemtl Material.008
f 57/99/22 61/103/22 63/107/22 59/101/22
f 60/102/22 59/101/22 63/108/22 64/110/22
f 64/111/23 63/109/23 61/104/23 62/106/23
f 62/105/22 58/100/22 60/102/22 64/112/22
f 58/100/24 57/99/24 59/101/24 60/102/24
f 62/106/22 61/104/22 57/99/22 58/100/22
o Cube.008
v -8.000000 6.000000 -48.000000
v -8.000000 0.000000 -48.000000
v -8.000000 6.000000 -44.000000
v -8.000000 0.000000 -44.000000
v -8.000000 6.000000 -48.000000
v -8.000000 0.000000 -48.000000
v -8.000000 6.000000 -44.000000
v -8.000000 0.000000 -44.000000
vn -0.0000 -0.0000 -0.0000
vn -1.0000 -0.0000 -0.0000
vn 1.0000 -0.0000 -0.0000
vt 0.625000 0.500000
vt 0.375000 0.500000
vt 0.625000 0.750000
vt 0.375000 0.750000
vt 0.875000 0.500000
vt 0.625000 0.250000
vt 0.125000 0.500000
vt 0.375000 0.250000
vt 0.875000 0.750000
vt 0.625000 1.000000
vt 0.625000 0.000000
vt 0.375000 1.000000
vt 0.375000 0.000000
vt 0.125000 0.750000
s 0
usemtl Material.009
f 65/113/25 69/117/25 71/121/25 67/115/25
f 68/116/25 67/115/25 71/122/25 72/124/25
f 72/125/26 71/123/26 69/118/26 70/120/26
f 70/119/25 66/114/25 68/116/25 72/126/25
f 66/114/27 65/113/27 67/115/27 68/116/27
f 70/120/25 69/118/25 65/113/25 66/114/25
o Cube.009
v -12.000000 6.000000 -44.000000
v -12.000000 0.000000 -44.000000
v -12.000000 6.000000 -44.000000
v -12.000000 0.000000 -44.000000
v -16.000000 6.000000 -44.000000
v -16.000000 0.000000 -44.000000
v -16.000000 6.000000 -44.000000
v -16.000000 0.000000 -44.000000
vn -0.0000 -0.0000 -0.0000
vn -0.0000 -0.0000 1.0000
vn -0.0000 -0.0000 -1.0000
vt 0.625000 0.500000
vt 0.375000 0.500000
vt 0.625000 0.750000
vt 0.375000 0.750000
vt 0.875000 0.500000
vt 0.625000 0.250000
vt 0.125000 0.500000
vt 0.375000 0.250000
vt 0.875000 0.750000
vt 0.625000 1.000000
vt 0.625000 0.000000
vt 0.375000 1.000000
vt 0.375000 0.000000
vt 0.125000 0.750000
s 0
usemtl Material.010
f 73/127/28 77/131/28 79/135/28 75/129/28
f 76/130/29 75/129/29 79/136/29 80/138/29
f 80/139/28 79/137/28 77/132/28 78/134/28
f 78/133/28 74/128/28 76/130/28 80/140/28
f 74/128/28 73/127/28 75/129/28 76/130/28
f 78/134/30 77/132/30 73/127/30 74/128/30
o Cube.010
v -12.000000 6.000000 -48.000000
v -12.000000 0.000000 -48.000000
v -12.000000 6.000000 -44.000000
v -12.000000 0.000000 -44.000000
v -12.000000 6.000000 -48.000000
v -12.000000 0.000000 -48.000000
v -12.000000 6.000000 -44.000000
v -12.000000 0.000000 -44.000000
vn -0.0000 -0.0000 -0.0000
vn -1.0000 -0.0000 -0.0000
vn 1.0000 -0.0000 -0.0000
vt 0.625000 0.500000
vt 0.375000 0.500000
vt 0.625000 0.750000
vt 0.375000 0.750000
vt 0.875000 0.500000
vt 0.625000 0.250000
vt 0.125000 0.500000
vt 0.375000 0.250000
vt 0.875000 0.750000
vt 0.625000 1.000000
vt 0.625000 0.000000
vt 0.375000 1.000000
vt 0.375000 0.000000
vt 0.125000 0.750000
s 0
usemtl Material.011
f 81/141/31 85/145/31 87/149/31 83/143/31
f 84/144/31 83/143/31 87/150/31 88/152/31
f 88/153/32 87/151/32 85/146/32 86/148/32
f 86/147/31 82/142/31 84/144/31 88/154/31
f 82/142/33 81/141/33 83/143/33 84/144/33
f 86/148/31 85/146/31 81/141/31 82/142/31
o Cube.011
v 4.000000 6.000000 -48.000000
v 4.000000 0.000000 -48.000000
v 4.000000 6.000000 -44.000000
v 4.000000 0.000000 -44.000000
v 4.000000 6.000000 -48.000000
v 4.000000 0.000000 -48.000000
v 4.000000 6.000000 -44.000000
v 4.000000 0.000000 -44.000000
vn -0.0000 -0.0000 -0.0000
vn -1.0000 -0.0000 -0.0000
vn 1.0000 -0.0000 -0.0000
vt 0.625000 0.500000
vt 0.375000 0.500000
vt 0.625000 0.750000
vt 0.375000 0.750000
vt 0.875000 0.500000
vt 0.625000 0.250000
vt 0.125000 0.500000
vt 0.375000 0.250000
vt 0.875000 0.750000
vt 0.625000 1.000000
vt 0.625000 0.000000
vt 0.375000 1.000000
vt 0.375000 0.000000
vt 0.125000 0.750000
s 0
usemtl Material.012
f 89/155/34 93/159/34 95/163/34 91/157/34
f 92/158/34 91/157/34 95/164/34 96/166/34
f 96/167/35 95/165/35 93/160/35 94/162/35
f 94/161/34 90/156/34 92/158/34 96/168/34
f 90/156/36 89/155/36 91/157/36 92/158/36
f 94/162/34 93/160/34 89/155/34 90/156/34
o Cube.012
v 0.000000 6.000000 -48.000000
v 0.000000 0.000000 -48.000000
v 0.000000 6.000000 -44.000000
v 0.000000 0.000000 -44.000000
v 0.000000 6.000000 -48.000000
v 0.000000 0.000000 -48.000000
v 0.000000 6.000000 -44.000000
v 0.000000 0.000000 -44.000000
vn -0.0000 -0.0000 -0.0000
vn -1.0000 -0.0000 -0.0000
vn 1.0000 -0.0000 -0.0000
vt 0.625000 0.500000
vt 0.375000 0.500000
vt 0.625000 0.750000
vt 0.375000 0.750000
vt 0.875000 0.500000
vt 0.625000 0.250000
vt 0.125000 0.500000
vt 0.375000 0.250000
vt 0.875000 0.750000
vt 0.625000 1.000000
vt 0.625000 0.000000
vt 0.375000 1.000000
vt 0.375000 0.000000
vt 0.125000 0.750000
s 0
usemtl Material.013
f 97/169/37 101/173/37 103/177/37 99/171/37
f 100/172/37 99/171/37 103/178/37 104/180/37
f 104/181/38 103/179/38 101/174/38 102/176/38
f 102/175/37 98/170/37 100/172/37 104/182/37
f 98/170/39 97/169/39 99/171/39 100/172/39
f 102/176/37 101/174/37 97/169/37 98/170/37
o Cube.013
v 12.000000 6.000000 32.000000
v 12.000000 0.000000 32.000000
v 12.000000 6.000000 32.000000
v 12.000000 0.000000 32.000000
v -16.000000 6.000000 32.000000
v -16.000000 0.000000 32.000000
v -16.000000 6.000000 32.000000
v -16.000000 0.000000 32.000000
vn -0.0000 -0.0000 -0.0000
vn -0.0000 -0.0000 1.0000
vn -0.0000 -0.0000 -1.0000
vt 0.625000 0.500000
vt 0.375000 0.500000
vt 0.625000 0.750000
vt 0.375000 0.750000
vt 0.875000 0.500000
vt 0.625000 0.250000
vt 0.125000 0.500000
vt 0.375000 0.250000
vt 0.875000 0.750000
vt 0.625000 1.000000
vt 0.625000 0.000000
vt 0.375000 1.000000
vt 0.375000 0.000000
vt 0.125000 0.750000
s 0
usemtl Material.014
f 105/183/40 109/187/40 111/191/40 107/185/40
f 108/186/41 107/185/41 111/192/41 112/194/41
f 112/195/40 111/193/40 109/188/40 110/190/40
f 110/189/40 106/184/40 108/186/40 112/196/40
f 106/184/40 105/183/40 107/185/40 108/186/40
f 110/190/42 109/188/42 105/183/42 106/184/42
o Cube.014
v 12.000000 6.000000 28.000000
v 12.000000 0.000000 28.000000
v 12.000000 6.000000 28.000000
v 12.000000 0.000000 28.000000
v -12.000000 6.000000 28.000000
v -12.000000 0.000000 28.000000
v -12.000000 6.000000 28.000000
v -12.000000 0.000000 28.000000
vn -0.0000 -0.0000 -0.0000
vn -0.0000 -0.0000 1.0000
vn -0.0000 -0.0000 -1.0000
vt 0.625000 0.500000
vt 0.375000 0.500000
vt 0.625000 0.750000
vt 0.375000 0.750000
vt 0.875000 0.500000
vt 0.625000 0.250000
vt 0.125000 0.500000
vt 0.375000 0.250000
vt 0.875000 0.750000
vt 0.625000 1.000000
vt 0.625000 0.000000
vt 0.375000 1.000000
vt 0.375000 0.000000
vt 0.125000 0.750000
s 0
usemtl Material.015
f 113/197/43 117/201/43 119/205/43 115/199/43
f 116/200/44 115/199/44 119/206/44 120/208/44
f 120/209/43 119/207/43 117/202/43 118/204/43
f 118/203/43 114/198/43 116/200/43 120/210/43
f 114/198/43 113/197/43 115/199/43 116/200/43
f 118/204/45 117/202/45 113/197/45 114/198/45
