# Blender 3.5.0
# www.blender.org
mtllib Robot2.mtl
o 立方体.001
v 0.300000 1.600000 -0.400000
v 0.300000 2.400000 -0.400000
v 1.100000 1.600000 -0.400000
v 1.100000 2.400000 -0.400000
v 0.300000 1.600000 0.400000
v 0.300000 2.400000 0.400000
v 1.100000 1.600000 0.400000
v 1.100000 2.400000 0.400000
vn -0.0000 -0.0000 -1.0000
vn 1.0000 -0.0000 -0.0000
vn -0.0000 -0.0000 1.0000
vn -1.0000 -0.0000 -0.0000
vn -0.0000 -1.0000 -0.0000
vn -0.0000 1.0000 -0.0000
vt 0.285905 0.101272
vt 0.256144 0.256144
vt 0.023837 0.363341
vt 0.285905 0.131034
vt 0.256144 0.285905
vt 0.363341 0.053599
vt 0.256144 0.101272
vt 0.208470 0.256144
vt 0.023837 0.333579
vt 0.256144 0.131034
vt 0.208470 0.285905
vt 0.363341 0.023837
vt 0.256144 0.178708
vt 0.285905 0.256144
vt 0.053599 0.363341
vt 0.256144 0.208470
vt 0.285905 0.285905
vt 0.333579 0.053599
vt 0.178708 0.256144
vt 0.285905 0.178708
vt 0.053599 0.333579
vt 0.178708 0.285905
vt 0.285905 0.208470
vt 0.333579 0.023837
s 0
usemtl マテリアル.004
f 1/1/1 2/4/1 4/10/1 3/7/1
f 3/8/2 4/11/2 8/22/2 7/19/2
f 7/20/3 8/23/3 6/16/3 5/13/3
f 5/14/4 6/17/4 2/5/4 1/2/4
f 3/9/5 7/21/5 5/15/5 1/3/5
f 8/24/6 4/12/6 2/6/6 6/18/6
o 立方体.008
v -1.100000 1.600000 -0.400000
v -1.100000 2.400000 -0.400000
v -0.300000 1.600000 -0.400000
v -0.300000 2.400000 -0.400000
v -1.100000 1.600000 0.400000
v -1.100000 2.400000 0.400000
v -0.300000 1.600000 0.400000
v -0.300000 2.400000 0.400000
vn -0.0000 -0.0000 -1.0000
vn 1.0000 -0.0000 -0.0000
vn -0.0000 -0.0000 1.0000
vn -1.0000 -0.0000 -0.0000
vn -0.0000 -1.0000 -0.0000
vn -0.0000 1.0000 -0.0000
vt 0.208470 0.565886
vt 0.565886 0.333579
vt 0.333579 0.595647
vt 0.208470 0.595647
vt 0.565886 0.363341
vt 0.440776 0.595647
vt 0.178708 0.565886
vt 0.285905 0.565886
vt 0.333579 0.565886
vt 0.178708 0.595647
vt 0.285905 0.595647
vt 0.440776 0.565886
vt 0.565886 0.256144
vt 0.595647 0.333579
vt 0.363341 0.595647
vt 0.565886 0.285905
vt 0.595647 0.363341
vt 0.411015 0.595647
vt 0.256144 0.565886
vt 0.595647 0.256144
vt 0.363341 0.565886
vt 0.256144 0.595647
vt 0.595647 0.285905
vt 0.411015 0.565886
s 0
usemtl マテリアル.005
f 9/25/7 10/28/7 12/34/7 11/31/7
f 11/32/8 12/35/8 16/46/8 15/43/8
f 15/44/9 16/47/9 14/40/9 13/37/9
f 13/38/10 14/41/10 10/29/10 9/26/10
f 11/33/11 15/45/11 13/39/11 9/27/11
f 16/48/12 12/36/12 10/30/12 14/42/12
o 立方体.013
v -0.650000 0.200000 -0.450000
v -0.650000 0.400000 -0.450000
v 0.650000 0.200000 -0.450000
v 0.650000 0.400000 -0.450000
v -0.650000 0.200000 0.450000
v -0.650000 0.400000 0.450000
v 0.650000 0.200000 0.450000
v 0.650000 0.400000 0.450000
vn -0.0000 -0.0000 -1.0000
vn 1.0000 -0.0000 -0.0000
vn -0.0000 -0.0000 1.0000
vn -1.0000 -0.0000 -0.0000
vn -0.0000 -1.0000 -0.0000
vn -0.0000 1.0000 -0.0000
vt 0.363341 0.720757
vt 0.488450 0.720757
vt 0.720757 0.518212
vt 0.363341 0.750518
vt 0.488450 0.750518
vt 0.750518 0.595647
vt 0.333579 0.720757
vt 0.750518 0.411015
vt 0.720757 0.488450
vt 0.333579 0.750518
vt 0.750518 0.440776
vt 0.750518 0.565886
vt 0.411015 0.720757
vt 0.518212 0.720757
vt 0.750518 0.518212
vt 0.411015 0.750518
vt 0.518212 0.750518
vt 0.720757 0.595647
vt 0.720757 0.411015
vt 0.440776 0.720757
vt 0.750518 0.488450
vt 0.720757 0.440776
vt 0.440776 0.750518
vt 0.720757 0.565886
s 0
usemtl マテリアル.006
f 17/49/13 18/52/13 20/58/13 19/55/13
f 19/56/14 20/59/14 24/70/14 23/67/14
f 23/68/15 24/71/15 22/64/15 21/61/15
f 21/62/16 22/65/16 18/53/16 17/50/16
f 19/57/17 23/69/17 21/63/17 17/51/17
f 24/72/18 20/60/18 18/54/18 22/66/18
