# Blender 3.5.0
# www.blender.org
mtllib Stage.mtl
o 立方体
v 6.000000 0.000000 10.000000
v 6.000000 6.000000 10.000000
v 6.000000 0.000000 10.000000
v 6.000000 6.000000 10.000000
v 10.000000 0.000000 10.000000
v 10.000000 6.000000 10.000000
v 10.000000 0.000000 10.000000
v 10.000000 6.000000 10.000000
vn -0.0000 -0.0000 -0.0000
vn -0.0000 -0.0000 -1.0000
vn -0.0000 -0.0000 1.0000
vt 0.375000 0.000000
vt 0.375000 1.000000
vt 0.125000 0.750000
vt 0.625000 0.000000
vt 0.625000 1.000000
vt 0.875000 0.750000
vt 0.375000 0.250000
vt 0.125000 0.500000
vt 0.625000 0.250000
vt 0.875000 0.500000
vt 0.375000 0.750000
vt 0.625000 0.750000
vt 0.375000 0.500000
vt 0.625000 0.500000
s 0
usemtl マテリアル
f 1/1/1 2/4/1 4/9/1 3/7/1
f 3/7/2 4/9/2 8/14/2 7/13/2
f 7/13/1 8/14/1 6/12/1 5/11/1
f 5/11/3 6/12/3 2/5/3 1/2/3
f 3/8/1 7/13/1 5/11/1 1/3/1
f 8/14/1 4/10/1 2/6/1 6/12/1
o 立方体.001
v -22.000000 0.000000 10.000000
v -22.000000 6.000000 10.000000
v -22.000000 0.000000 10.000000
v -22.000000 6.000000 10.000000
v 2.000000 0.000000 10.000000
v 2.000000 6.000000 10.000000
v 2.000000 0.000000 10.000000
v 2.000000 6.000000 10.000000
vn -0.0000 -0.0000 -0.0000
vn -0.0000 -0.0000 -1.0000
vn -0.0000 -0.0000 1.0000
vt 0.375000 0.000000
vt 0.375000 1.000000
vt 0.125000 0.750000
vt 0.625000 0.000000
vt 0.625000 1.000000
vt 0.875000 0.750000
vt 0.375000 0.250000
vt 0.125000 0.500000
vt 0.625000 0.250000
vt 0.875000 0.500000
vt 0.375000 0.750000
vt 0.625000 0.750000
vt 0.375000 0.500000
vt 0.625000 0.500000
s 0
usemtl マテリアル.005
f 9/15/4 10/18/4 12/23/4 11/21/4
f 11/21/5 12/23/5 16/28/5 15/27/5
f 15/27/4 16/28/4 14/26/4 13/25/4
f 13/25/6 14/26/6 10/19/6 9/16/6
f 11/22/4 15/27/4 13/25/4 9/17/4
f 16/28/4 12/24/4 10/20/4 14/26/4
o 立方体.002
v -10.000000 0.000000 26.000000
v -10.000000 6.000000 26.000000
v -10.000000 0.000000 2.000000
v -10.000000 6.000000 2.000000
v -10.000000 0.000000 26.000000
v -10.000000 6.000000 26.000000
v -10.000000 0.000000 2.000000
v -10.000000 6.000000 2.000000
vn -1.0000 -0.0000 -0.0000
vn -0.0000 -0.0000 -0.0000
vn 1.0000 -0.0000 -0.0000
vt 0.375000 0.000000
vt 0.375000 1.000000
vt 0.125000 0.750000
vt 0.625000 0.000000
vt 0.625000 1.000000
vt 0.875000 0.750000
vt 0.375000 0.250000
vt 0.125000 0.500000
vt 0.625000 0.250000
vt 0.875000 0.500000
vt 0.375000 0.750000
vt 0.625000 0.750000
vt 0.375000 0.500000
vt 0.625000 0.500000
s 0
usemtl マテリアル.004
f 17/29/7 18/32/7 20/37/7 19/35/7
f 19/35/8 20/37/8 24/42/8 23/41/8
f 23/41/9 24/42/9 22/40/9 21/39/9
f 21/39/8 22/40/8 18/33/8 17/30/8
f 19/36/8 23/41/8 21/39/8 17/31/8
f 24/42/8 20/38/8 18/34/8 22/40/8
o 立方体.003
v -10.000000 0.000000 -2.000000
v -10.000000 6.000000 -2.000000
v -10.000000 0.000000 -10.000000
v -10.000000 6.000000 -10.000000
v -10.000000 0.000000 -2.000000
v -10.000000 6.000000 -2.000000
v -10.000000 0.000000 -10.000000
v -10.000000 6.000000 -10.000000
vn -1.0000 -0.0000 -0.0000
vn -0.0000 -0.0000 -0.0000
vn 1.0000 -0.0000 -0.0000
vt 0.375000 0.000000
vt 0.375000 1.000000
vt 0.125000 0.750000
vt 0.625000 0.000000
vt 0.625000 1.000000
vt 0.875000 0.750000
vt 0.375000 0.250000
vt 0.125000 0.500000
vt 0.625000 0.250000
vt 0.875000 0.500000
vt 0.375000 0.750000
vt 0.625000 0.750000
vt 0.375000 0.500000
vt 0.625000 0.500000
s 0
usemtl マテリアル.003
f 25/43/10 26/46/10 28/51/10 27/49/10
f 27/49/11 28/51/11 32/56/11 31/55/11
f 31/55/12 32/56/12 30/54/12 29/53/12
f 29/53/11 30/54/11 26/47/11 25/44/11
f 27/50/11 31/55/11 29/53/11 25/45/11
f 32/56/11 28/52/11 26/48/11 30/54/11
o 立方体.004
v 10.000000 0.000000 10.000000
v 10.000000 6.000000 10.000000
v 10.000000 0.000000 -10.000000
v 10.000000 6.000000 -10.000000
v 10.000000 0.000000 10.000000
v 10.000000 6.000000 10.000000
v 10.000000 0.000000 -10.000000
v 10.000000 6.000000 -10.000000
vn -1.0000 -0.0000 -0.0000
vn -0.0000 -0.0000 -0.0000
vn 1.0000 -0.0000 -0.0000
vt 0.375000 0.000000
vt 0.375000 1.000000
vt 0.125000 0.750000
vt 0.625000 0.000000
vt 0.625000 1.000000
vt 0.875000 0.750000
vt 0.375000 0.250000
vt 0.125000 0.500000
vt 0.625000 0.250000
vt 0.875000 0.500000
vt 0.375000 0.750000
vt 0.625000 0.750000
vt 0.375000 0.500000
vt 0.625000 0.500000
s 0
usemtl マテリアル.001
f 33/57/13 34/60/13 36/65/13 35/63/13
f 35/63/14 36/65/14 40/70/14 39/69/14
f 39/69/15 40/70/15 38/68/15 37/67/15
f 37/67/14 38/68/14 34/61/14 33/58/14
f 35/64/14 39/69/14 37/67/14 33/59/14
f 40/70/14 36/66/14 34/62/14 38/68/14
o 立方体.005
v -58.000000 0.000000 -10.000000
v -58.000000 6.000000 -10.000000
v -58.000000 0.000000 -10.000000
v -58.000000 6.000000 -10.000000
v 10.000000 0.000000 -10.000000
v 10.000000 6.000000 -10.000000
v 10.000000 0.000000 -10.000000
v 10.000000 6.000000 -10.000000
vn -0.0000 -0.0000 -0.0000
vn -0.0000 -0.0000 -1.0000
vn -0.0000 -0.0000 1.0000
vt 0.375000 0.000000
vt 0.375000 1.000000
vt 0.125000 0.750000
vt 0.625000 0.000000
vt 0.625000 1.000000
vt 0.875000 0.750000
vt 0.375000 0.250000
vt 0.125000 0.500000
vt 0.625000 0.250000
vt 0.875000 0.500000
vt 0.375000 0.750000
vt 0.625000 0.750000
vt 0.375000 0.500000
vt 0.625000 0.500000
s 0
usemtl マテリアル.002
f 41/71/16 42/74/16 44/79/16 43/77/16
f 43/77/17 44/79/17 48/84/17 47/83/17
f 47/83/16 48/84/16 46/82/16 45/81/16
f 45/81/18 46/82/18 42/75/18 41/72/18
f 43/78/16 47/83/16 45/81/16 41/73/16
f 48/84/16 44/80/16 42/76/16 46/82/16
o 立方体.006
v -34.000000 0.000000 10.000000
v -34.000000 6.000000 10.000000
v -34.000000 0.000000 10.000000
v -34.000000 6.000000 10.000000
v -26.000000 0.000000 10.000000
v -26.000000 6.000000 10.000000
v -26.000000 0.000000 10.000000
v -26.000000 6.000000 10.000000
vn -0.0000 -0.0000 -0.0000
vn -0.0000 -0.0000 -1.0000
vn -0.0000 -0.0000 1.0000
vt 0.375000 0.000000
vt 0.375000 1.000000
vt 0.125000 0.750000
vt 0.625000 0.000000
vt 0.625000 1.000000
vt 0.875000 0.750000
vt 0.375000 0.250000
vt 0.125000 0.500000
vt 0.625000 0.250000
vt 0.875000 0.500000
vt 0.375000 0.750000
vt 0.625000 0.750000
vt 0.375000 0.500000
vt 0.625000 0.500000
s 0
usemtl マテリアル.006
f 49/85/19 50/88/19 52/93/19 51/91/19
f 51/91/20 52/93/20 56/98/20 55/97/20
f 55/97/19 56/98/19 54/96/19 53/95/19
f 53/95/21 54/96/21 50/89/21 49/86/21
f 51/92/19 55/97/19 53/95/19 49/87/19
f 56/98/19 52/94/19 50/90/19 54/96/19
o 立方体.007
v -58.000000 0.000000 26.000000
v -58.000000 6.000000 26.000000
v -58.000000 0.000000 26.000000
v -58.000000 6.000000 26.000000
v -10.000000 0.000000 26.000000
v -10.000000 6.000000 26.000000
v -10.000000 0.000000 26.000000
v -10.000000 6.000000 26.000000
vn -0.0000 -0.0000 -0.0000
vn -0.0000 -0.0000 -1.0000
vn -0.0000 -0.0000 1.0000
vt 0.375000 0.000000
vt 0.375000 1.000000
vt 0.125000 0.750000
vt 0.625000 0.000000
vt 0.625000 1.000000
vt 0.875000 0.750000
vt 0.375000 0.250000
vt 0.125000 0.500000
vt 0.625000 0.250000
vt 0.875000 0.500000
vt 0.375000 0.750000
vt 0.625000 0.750000
vt 0.375000 0.500000
vt 0.625000 0.500000
s 0
usemtl マテリアル.007
f 57/99/22 58/102/22 60/107/22 59/105/22
f 59/105/23 60/107/23 64/112/23 63/111/23
f 63/111/22 64/112/22 62/110/22 61/109/22
f 61/109/24 62/110/24 58/103/24 57/100/24
f 59/106/22 63/111/22 61/109/22 57/101/22
f 64/112/22 60/108/22 58/104/22 62/110/22
o 立方体.008
v -34.000000 0.000000 26.000000
v -34.000000 6.000000 26.000000
v -34.000000 0.000000 22.000000
v -34.000000 6.000000 22.000000
v -34.000000 0.000000 26.000000
v -34.000000 6.000000 26.000000
v -34.000000 0.000000 22.000000
v -34.000000 6.000000 22.000000
vn -1.0000 -0.0000 -0.0000
vn -0.0000 -0.0000 -0.0000
vn 1.0000 -0.0000 -0.0000
vt 0.375000 0.000000
vt 0.375000 1.000000
vt 0.125000 0.750000
vt 0.625000 0.000000
vt 0.625000 1.000000
vt 0.875000 0.750000
vt 0.375000 0.250000
vt 0.125000 0.500000
vt 0.625000 0.250000
vt 0.875000 0.500000
vt 0.375000 0.750000
vt 0.625000 0.750000
vt 0.375000 0.500000
vt 0.625000 0.500000
s 0
usemtl マテリアル.016
f 65/113/25 66/116/25 68/121/25 67/119/25
f 67/119/26 68/121/26 72/126/26 71/125/26
f 71/125/27 72/126/27 70/124/27 69/123/27
f 69/123/26 70/124/26 66/117/26 65/114/26
f 67/120/26 71/125/26 69/123/26 65/115/26
f 72/126/26 68/122/26 66/118/26 70/124/26
o 立方体.009
v -34.000000 0.000000 18.000000
v -34.000000 6.000000 18.000000
v -34.000000 0.000000 -6.000000
v -34.000000 6.000000 -6.000000
v -34.000000 0.000000 18.000000
v -34.000000 6.000000 18.000000
v -34.000000 0.000000 -6.000000
v -34.000000 6.000000 -6.000000
vn -1.0000 -0.0000 -0.0000
vn -0.0000 -0.0000 -0.0000
vn 1.0000 -0.0000 -0.0000
vt 0.375000 0.000000
vt 0.375000 1.000000
vt 0.125000 0.750000
vt 0.625000 0.000000
vt 0.625000 1.000000
vt 0.875000 0.750000
vt 0.375000 0.250000
vt 0.125000 0.500000
vt 0.625000 0.250000
vt 0.875000 0.500000
vt 0.375000 0.750000
vt 0.625000 0.750000
vt 0.375000 0.500000
vt 0.625000 0.500000
s 0
usemtl マテリアル.015
f 73/127/28 74/130/28 76/135/28 75/133/28
f 75/133/29 76/135/29 80/140/29 79/139/29
f 79/139/30 80/140/30 78/138/30 77/137/30
f 77/137/29 78/138/29 74/131/29 73/128/29
f 75/134/29 79/139/29 77/137/29 73/129/29
f 80/140/29 76/136/29 74/132/29 78/138/29
o 立方体.017
v -58.000000 0.000000 26.000000
v -58.000000 6.000000 26.000000
v -58.000000 0.000000 6.000000
v -58.000000 6.000000 6.000000
v -58.000000 0.000000 26.000000
v -58.000000 6.000000 26.000000
v -58.000000 0.000000 6.000000
v -58.000000 6.000000 6.000000
vn -1.0000 -0.0000 -0.0000
vn -0.0000 -0.0000 -0.0000
vn 1.0000 -0.0000 -0.0000
vt 0.375000 0.000000
vt 0.375000 1.000000
vt 0.125000 0.750000
vt 0.625000 0.000000
vt 0.625000 1.000000
vt 0.875000 0.750000
vt 0.375000 0.250000
vt 0.125000 0.500000
vt 0.625000 0.250000
vt 0.875000 0.500000
vt 0.375000 0.750000
vt 0.625000 0.750000
vt 0.375000 0.500000
vt 0.625000 0.500000
s 0
usemtl マテリアル.008
f 81/141/31 82/144/31 84/149/31 83/147/31
f 83/147/32 84/149/32 88/154/32 87/153/32
f 87/153/33 88/154/33 86/152/33 85/151/33
f 85/151/32 86/152/32 82/145/32 81/142/32
f 83/148/32 87/153/32 85/151/32 81/143/32
f 88/154/32 84/150/32 82/146/32 86/152/32
o 立方体.018
v -58.000000 0.000000 2.000000
v -58.000000 6.000000 2.000000
v -58.000000 0.000000 -10.000000
v -58.000000 6.000000 -10.000000
v -58.000000 0.000000 2.000000
v -58.000000 6.000000 2.000000
v -58.000000 0.000000 -10.000000
v -58.000000 6.000000 -10.000000
vn -1.0000 -0.0000 -0.0000
vn -0.0000 -0.0000 -0.0000
vn 1.0000 -0.0000 -0.0000
vt 0.375000 0.000000
vt 0.375000 1.000000
vt 0.125000 0.750000
vt 0.625000 0.000000
vt 0.625000 1.000000
vt 0.875000 0.750000
vt 0.375000 0.250000
vt 0.125000 0.500000
vt 0.625000 0.250000
vt 0.875000 0.500000
vt 0.375000 0.750000
vt 0.625000 0.750000
vt 0.375000 0.500000
vt 0.625000 0.500000
s 0
usemtl マテリアル.019
f 89/155/34 90/158/34 92/163/34 91/161/34
f 91/161/35 92/163/35 96/168/35 95/167/35
f 95/167/36 96/168/36 94/166/36 93/165/36
f 93/165/35 94/166/35 90/159/35 89/156/35
f 91/162/35 95/167/35 93/165/35 89/157/35
f 96/168/35 92/164/35 90/160/35 94/166/35
o 立方体.019
v -46.000000 0.000000 -2.000000
v -46.000000 6.000000 -2.000000
v -46.000000 0.000000 -2.000000
v -46.000000 6.000000 -2.000000
v -34.000000 0.000000 -2.000000
v -34.000000 6.000000 -2.000000
v -34.000000 0.000000 -2.000000
v -34.000000 6.000000 -2.000000
vn -0.0000 -0.0000 -0.0000
vn -0.0000 -0.0000 -1.0000
vn -0.0000 -0.0000 1.0000
vt 0.375000 0.000000
vt 0.375000 1.000000
vt 0.125000 0.750000
vt 0.625000 0.000000
vt 0.625000 1.000000
vt 0.875000 0.750000
vt 0.375000 0.250000
vt 0.125000 0.500000
vt 0.625000 0.250000
vt 0.875000 0.500000
vt 0.375000 0.750000
vt 0.625000 0.750000
vt 0.375000 0.500000
vt 0.625000 0.500000
s 0
usemtl マテリアル.017
f 97/169/37 98/172/37 100/177/37 99/175/37
f 99/175/38 100/177/38 104/182/38 103/181/38
f 103/181/37 104/182/37 102/180/37 101/179/37
f 101/179/39 102/180/39 98/173/39 97/170/39
f 99/176/37 103/181/37 101/179/37 97/171/37
f 104/182/37 100/178/37 98/174/37 102/180/37
o 立方体.020
v -58.000000 0.000000 -2.000000
v -58.000000 6.000000 -2.000000
v -58.000000 0.000000 -2.000000
v -58.000000 6.000000 -2.000000
v -50.000000 0.000000 -2.000000
v -50.000000 6.000000 -2.000000
v -50.000000 0.000000 -2.000000
v -50.000000 6.000000 -2.000000
vn -0.0000 -0.0000 -0.0000
vn -0.0000 -0.0000 -1.0000
vn -0.0000 -0.0000 1.0000
vt 0.375000 0.000000
vt 0.375000 1.000000
vt 0.125000 0.750000
vt 0.625000 0.000000
vt 0.625000 1.000000
vt 0.875000 0.750000
vt 0.375000 0.250000
vt 0.125000 0.500000
vt 0.625000 0.250000
vt 0.875000 0.500000
vt 0.375000 0.750000
vt 0.625000 0.750000
vt 0.375000 0.500000
vt 0.625000 0.500000
s 0
usemtl マテリアル.018
f 105/183/40 106/186/40 108/191/40 107/189/40
f 107/189/41 108/191/41 112/196/41 111/195/41
f 111/195/40 112/196/40 110/194/40 109/193/40
f 109/193/42 110/194/42 106/187/42 105/184/42
f 107/190/40 111/195/40 109/193/40 105/185/40
f 112/196/40 108/192/40 106/188/40 110/194/40
