# Blender 3.5.0
# www.blender.org
mtllib Stage.mtl
o 立方体
v 6.000000 0.000000 10.000000
v 6.000000 6.000000 10.000000
v 6.000000 0.000000 10.000000
v 6.000000 6.000000 10.000000
v 10.000000 0.000000 10.000000
v 10.000000 6.000000 10.000000
v 10.000000 0.000000 10.000000
v 10.000000 6.000000 10.000000
vn -0.0000 -0.0000 -0.0000
vn -0.0000 -0.0000 -1.0000
vn -0.0000 -0.0000 1.0000
vt 1.332596 0.000386
vt 0.489434 0.004910
vt -0.295272 -0.371452
vt 1.333727 1.001046
vt 0.490565 1.000000
vt -0.291879 1.379670
vt 1.000000 0.000000
vt 0.488390 -0.372583
vt 1.000489 1.000000
vt 0.491784 1.378539
vt 0.999434 0.000000
vt -0.294141 0.003779
vt 1.000566 1.000000
vt -0.293010 1.004440
vt 0.489521 0.000000
vt 0.490653 1.000000
s 0
usemtl マテリアル
f 1/1/1 2/4/1 4/9/1 3/7/1
f 3/7/2 4/9/2 8/16/2 7/15/2
f 7/15/1 8/16/1 6/14/1 5/12/1
f 5/11/3 6/13/3 2/5/3 1/2/3
f 3/8/1 7/15/1 5/12/1 1/3/1
f 8/16/1 4/10/1 2/6/1 6/14/1
o 立方体.001
v -22.000000 0.000000 10.000000
v -22.000000 6.000000 10.000000
v -22.000000 0.000000 10.000000
v -22.000000 6.000000 10.000000
v 2.000000 0.000000 10.000000
v 2.000000 6.000000 10.000000
v 2.000000 0.000000 10.000000
v 2.000000 6.000000 10.000000
vn -0.0000 -0.0000 -0.0000
vn -0.0000 -0.0000 -1.0000
vn -0.0000 -0.0000 1.0000
vt 0.832564 0.310123
vt 0.000000 0.000000
vt 0.331751 -0.061715
vt 0.833696 0.685353
vt 0.000000 1.000000
vt 0.335144 1.063977
vt 0.666004 0.311254
vt 3.000000 0.000000
vt 0.498312 -0.062846
vt 0.667135 0.686484
vt 3.000000 1.000000
vt 0.501705 1.062846
vt 3.000000 0.000000
vt 0.332882 0.313516
vt 3.000000 1.000000
vt 0.334013 0.688746
vt 0.000000 0.000000
vt 0.499443 0.312385
vt 0.000000 1.000000
vt 0.500574 0.687615
s 0
usemtl マテリアル.005
f 9/17/4 10/20/4 12/26/4 11/23/4
f 11/24/5 12/27/5 16/35/5 15/33/5
f 15/34/4 16/36/4 14/32/4 13/30/4
f 13/29/6 14/31/6 10/21/6 9/18/6
f 11/25/4 15/34/4 13/30/4 9/19/4
f 16/36/4 12/28/4 10/22/4 14/32/4
o 立方体.002
v -10.000000 0.000000 26.000000
v -10.000000 6.000000 26.000000
v -10.000000 0.000000 2.000000
v -10.000000 6.000000 2.000000
v -10.000000 0.000000 26.000000
v -10.000000 6.000000 26.000000
v -10.000000 0.000000 2.000000
v -10.000000 6.000000 2.000000
vn -1.0000 -0.0000 -0.0000
vn -0.0000 -0.0000 -0.0000
vn 1.0000 -0.0000 -0.0000
vt 3.000000 0.000000
vt 0.166321 0.314647
vt 0.331751 -0.061715
vt 3.000000 1.000000
vt 0.167452 0.689877
vt 0.335144 1.063977
vt 0.000000 0.000000
vt 0.666004 0.311254
vt 0.498312 -0.062846
vt 0.000000 1.000000
vt 0.667135 0.686484
vt 0.501705 1.062846
vt 0.000000 0.000000
vt 0.332882 0.313516
vt 0.000000 1.000000
vt 0.334013 0.688746
vt 3.000000 0.000000
vt 0.499443 0.312385
vt 3.000000 1.000000
vt 0.500574 0.687615
s 0
usemtl マテリアル.004
f 17/37/7 18/40/7 20/46/7 19/43/7
f 19/44/8 20/47/8 24/56/8 23/54/8
f 23/53/9 24/55/9 22/51/9 21/49/9
f 21/50/8 22/52/8 18/41/8 17/38/8
f 19/45/8 23/54/8 21/50/8 17/39/8
f 24/56/8 20/48/8 18/42/8 22/52/8
o 立方体.003
v -10.000000 0.000000 -2.000000
v -10.000000 6.000000 -2.000000
v -10.000000 0.000000 -10.000000
v -10.000000 6.000000 -10.000000
v -10.000000 0.000000 -2.000000
v -10.000000 6.000000 -2.000000
v -10.000000 0.000000 -10.000000
v -10.000000 6.000000 -10.000000
vn -1.0000 -0.0000 -0.0000
vn -0.0000 -0.0000 -0.0000
vn 1.0000 -0.0000 -0.0000
vt 1.000000 0.000000
vt 0.166321 0.314647
vt 0.331751 -0.061715
vt 1.000000 1.000000
vt 0.167452 0.689877
vt 0.335144 1.063977
vt 0.000000 0.000000
vt 0.666004 0.311254
vt 0.498312 -0.062846
vt 0.000000 1.000000
vt 0.667135 0.686484
vt 0.501705 1.062846
vt 0.000000 0.000000
vt 0.332882 0.313516
vt 0.000000 1.000000
vt 0.334013 0.688746
vt 1.000000 0.000000
vt 0.499443 0.312385
vt 1.000000 1.000000
vt 0.500574 0.687615
s 0
usemtl マテリアル.003
f 25/57/10 26/60/10 28/66/10 27/63/10
f 27/64/11 28/67/11 32/76/11 31/74/11
f 31/73/12 32/75/12 30/71/12 29/69/12
f 29/70/11 30/72/11 26/61/11 25/58/11
f 27/65/11 31/74/11 29/70/11 25/59/11
f 32/76/11 28/68/11 26/62/11 30/72/11
o 立方体.004
v 10.000000 0.000000 10.000000
v 10.000000 6.000000 10.000000
v 10.000000 0.000000 -10.000000
v 10.000000 6.000000 -10.000000
v 10.000000 0.000000 10.000000
v 10.000000 6.000000 10.000000
v 10.000000 0.000000 -10.000000
v 10.000000 6.000000 -10.000000
vn -1.0000 -0.0000 -0.0000
vn -0.0000 -0.0000 -0.0000
vn 1.0000 -0.0000 -0.0000
vt 3.000000 0.000000
vt 0.166321 0.314647
vt 0.331751 -0.061715
vt 3.000000 1.000000
vt 0.167452 0.689877
vt 0.335144 1.063977
vt 0.490000 0.000000
vt 0.666004 0.311254
vt 0.498312 -0.062846
vt 0.490000 1.000000
vt 0.667135 0.686484
vt 0.501705 1.062846
vt 0.490000 0.000000
vt 0.332882 0.313516
vt 0.490000 1.000000
vt 0.334013 0.688746
vt 3.000000 0.000000
vt 0.499443 0.312385
vt 3.000000 1.000000
vt 0.500574 0.687615
s 0
usemtl マテリアル.001
f 33/77/13 34/80/13 36/86/13 35/83/13
f 35/84/14 36/87/14 40/96/14 39/94/14
f 39/93/15 40/95/15 38/91/15 37/89/15
f 37/90/14 38/92/14 34/81/14 33/78/14
f 35/85/14 39/94/14 37/90/14 33/79/14
f 40/96/14 36/88/14 34/82/14 38/92/14
o 立方体.005
v -58.000000 0.000000 -10.000000
v -58.000000 6.000000 -10.000000
v -58.000000 0.000000 -10.000000
v -58.000000 6.000000 -10.000000
v 10.000000 0.000000 -10.000000
v 10.000000 6.000000 -10.000000
v 10.000000 0.000000 -10.000000
v 10.000000 6.000000 -10.000000
vn -0.0000 -0.0000 -0.0000
vn -0.0000 -0.0000 -1.0000
vn -0.0000 -0.0000 1.0000
vt 0.832564 0.310123
vt 0.490000 0.000000
vt 0.331751 -0.061715
vt 0.833696 0.685353
vt 0.490000 1.000000
vt 0.335144 1.063977
vt 0.666004 0.311254
vt 9.000000 0.000000
vt 0.498312 -0.062846
vt 0.667135 0.686484
vt 9.000000 1.000000
vt 0.501705 1.062846
vt 9.000000 0.000000
vt 0.332882 0.313516
vt 9.000000 1.000000
vt 0.334013 0.688746
vt 0.490000 0.000000
vt 0.499443 0.312385
vt 0.490000 1.000000
vt 0.500574 0.687615
s 0
usemtl マテリアル.002
f 41/97/16 42/100/16 44/106/16 43/103/16
f 43/104/17 44/107/17 48/115/17 47/113/17
f 47/114/16 48/116/16 46/112/16 45/110/16
f 45/109/18 46/111/18 42/101/18 41/98/18
f 43/105/16 47/114/16 45/110/16 41/99/16
f 48/116/16 44/108/16 42/102/16 46/112/16
o 立方体.006
v -34.000000 0.000000 10.000000
v -34.000000 6.000000 10.000000
v -34.000000 0.000000 10.000000
v -34.000000 6.000000 10.000000
v -26.000000 0.000000 10.000000
v -26.000000 6.000000 10.000000
v -26.000000 0.000000 10.000000
v -26.000000 6.000000 10.000000
vn -0.0000 -0.0000 -0.0000
vn -0.0000 -0.0000 -1.0000
vn -0.0000 -0.0000 1.0000
vt 0.832564 0.310123
vt 0.000000 0.000000
vt 0.331751 -0.061715
vt 0.833696 0.685353
vt 0.000000 1.000000
vt 0.335144 1.063977
vt 0.666004 0.311254
vt 1.000000 0.000000
vt 0.498312 -0.062846
vt 0.667135 0.686484
vt 1.000000 1.000000
vt 0.501705 1.062846
vt 1.000000 0.000000
vt 0.332882 0.313516
vt 1.000000 1.000000
vt 0.334013 0.688746
vt 0.000000 0.000000
vt 0.499443 0.312385
vt 0.000000 1.000000
vt 0.500574 0.687615
s 0
usemtl マテリアル.006
f 49/117/19 50/120/19 52/126/19 51/123/19
f 51/124/20 52/127/20 56/135/20 55/133/20
f 55/134/19 56/136/19 54/132/19 53/130/19
f 53/129/21 54/131/21 50/121/21 49/118/21
f 51/125/19 55/134/19 53/130/19 49/119/19
f 56/136/19 52/128/19 50/122/19 54/132/19
o 立方体.007
v -58.000000 0.000000 26.000000
v -58.000000 6.000000 26.000000
v -58.000000 0.000000 26.000000
v -58.000000 6.000000 26.000000
v -10.000000 0.000000 26.000000
v -10.000000 6.000000 26.000000
v -10.000000 0.000000 26.000000
v -10.000000 6.000000 26.000000
vn -0.0000 -0.0000 -0.0000
vn -0.0000 -0.0000 -1.0000
vn -0.0000 -0.0000 1.0000
vt 0.832564 0.310123
vt 0.000000 0.000000
vt 0.331751 -0.061715
vt 0.833696 0.685353
vt 0.000000 1.000000
vt 0.335144 1.063977
vt 0.666004 0.311254
vt 6.000000 0.000000
vt 0.498312 -0.062846
vt 0.667135 0.686484
vt 6.000000 1.000000
vt 0.501705 1.062846
vt 6.000000 0.000000
vt 0.332882 0.313516
vt 6.000000 1.000000
vt 0.334013 0.688746
vt 0.000000 0.000000
vt 0.499443 0.312385
vt 0.000000 1.000000
vt 0.500574 0.687615
s 0
usemtl マテリアル.007
f 57/137/22 58/140/22 60/146/22 59/143/22
f 59/144/23 60/147/23 64/155/23 63/153/23
f 63/154/22 64/156/22 62/152/22 61/150/22
f 61/149/24 62/151/24 58/141/24 57/138/24
f 59/145/22 63/154/22 61/150/22 57/139/22
f 64/156/22 60/148/22 58/142/22 62/152/22
o 立方体.008
v -34.000000 0.000000 26.000000
v -34.000000 6.000000 26.000000
v -34.000000 0.000000 22.000000
v -34.000000 6.000000 22.000000
v -34.000000 0.000000 26.000000
v -34.000000 6.000000 26.000000
v -34.000000 0.000000 22.000000
v -34.000000 6.000000 22.000000
vn -1.0000 -0.0000 -0.0000
vn -0.0000 -0.0000 -0.0000
vn 1.0000 -0.0000 -0.0000
vt 1.000000 0.000000
vt 0.166321 0.314647
vt 0.331751 -0.061715
vt 1.000000 1.000000
vt 0.167452 0.689877
vt 0.335144 1.063977
vt 0.490000 0.000000
vt 0.666004 0.311254
vt 0.498312 -0.062846
vt 0.490000 1.000000
vt 0.667135 0.686484
vt 0.501705 1.062846
vt 0.490000 0.000000
vt 0.332882 0.313516
vt 0.490000 1.000000
vt 0.334013 0.688746
vt 1.000000 0.000000
vt 0.499443 0.312385
vt 1.000000 1.000000
vt 0.500574 0.687615
s 0
usemtl マテリアル.016
f 65/157/25 66/160/25 68/166/25 67/163/25
f 67/164/26 68/167/26 72/176/26 71/174/26
f 71/173/27 72/175/27 70/171/27 69/169/27
f 69/170/26 70/172/26 66/161/26 65/158/26
f 67/165/26 71/174/26 69/170/26 65/159/26
f 72/176/26 68/168/26 66/162/26 70/172/26
o 立方体.009
v -34.000000 0.000000 18.000000
v -34.000000 6.000000 18.000000
v -34.000000 0.000000 -6.000000
v -34.000000 6.000000 -6.000000
v -34.000000 0.000000 18.000000
v -34.000000 6.000000 18.000000
v -34.000000 0.000000 -6.000000
v -34.000000 6.000000 -6.000000
vn -1.0000 -0.0000 -0.0000
vn -0.0000 -0.0000 -0.0000
vn 1.0000 -0.0000 -0.0000
vt 3.000000 0.000000
vt 0.166321 0.314647
vt 0.331751 -0.061715
vt 3.000000 1.000000
vt 0.167452 0.689877
vt 0.335144 1.063977
vt 0.000000 0.000000
vt 0.666004 0.311254
vt 0.498312 -0.062846
vt 0.000000 1.000000
vt 0.667135 0.686484
vt 0.501705 1.062846
vt 0.000000 0.000000
vt 0.332882 0.313516
vt 0.000000 1.000000
vt 0.334013 0.688746
vt 3.000000 0.000000
vt 0.499443 0.312385
vt 3.000000 1.000000
vt 0.500574 0.687615
s 0
usemtl マテリアル.015
f 73/177/28 74/180/28 76/186/28 75/183/28
f 75/184/29 76/187/29 80/196/29 79/194/29
f 79/193/30 80/195/30 78/191/30 77/189/30
f 77/190/29 78/192/29 74/181/29 73/178/29
f 75/185/29 79/194/29 77/190/29 73/179/29
f 80/196/29 76/188/29 74/182/29 78/192/29
o 立方体.017
v -58.000000 0.000000 26.000000
v -58.000000 6.000000 26.000000
v -58.000000 0.000000 6.000000
v -58.000000 6.000000 6.000000
v -58.000000 0.000000 26.000000
v -58.000000 6.000000 26.000000
v -58.000000 0.000000 6.000000
v -58.000000 6.000000 6.000000
vn -1.0000 -0.0000 -0.0000
vn -0.0000 -0.0000 -0.0000
vn 1.0000 -0.0000 -0.0000
vt 3.000000 0.000000
vt 0.166321 0.314647
vt 0.331751 -0.061715
vt 3.000000 1.000000
vt 0.167452 0.689877
vt 0.335144 1.063977
vt 0.490000 0.000000
vt 0.666004 0.311254
vt 0.498312 -0.062846
vt 0.490000 1.000000
vt 0.667135 0.686484
vt 0.501705 1.062846
vt 0.490000 0.000000
vt 0.332882 0.313516
vt 0.490000 1.000000
vt 0.334013 0.688746
vt 3.000000 0.000000
vt 0.499443 0.312385
vt 3.000000 1.000000
vt 0.500574 0.687615
s 0
usemtl マテリアル.008
f 81/197/31 82/200/31 84/206/31 83/203/31
f 83/204/32 84/207/32 88/216/32 87/214/32
f 87/213/33 88/215/33 86/211/33 85/209/33
f 85/210/32 86/212/32 82/201/32 81/198/32
f 83/205/32 87/214/32 85/210/32 81/199/32
f 88/216/32 84/208/32 82/202/32 86/212/32
o 立方体.018
v -58.000000 0.000000 2.000000
v -58.000000 6.000000 2.000000
v -58.000000 0.000000 -10.000000
v -58.000000 6.000000 -10.000000
v -58.000000 0.000000 2.000000
v -58.000000 6.000000 2.000000
v -58.000000 0.000000 -10.000000
v -58.000000 6.000000 -10.000000
vn -1.0000 -0.0000 -0.0000
vn -0.0000 -0.0000 -0.0000
vn 1.0000 -0.0000 -0.0000
vt 2.000000 0.000000
vt 0.166321 0.314647
vt 0.331751 -0.061715
vt 2.000000 1.000000
vt 0.167452 0.689877
vt 0.335144 1.063977
vt 0.490000 0.000000
vt 0.666004 0.311254
vt 0.498312 -0.062846
vt 0.490000 1.000000
vt 0.667135 0.686484
vt 0.501705 1.062846
vt 0.490000 0.000000
vt 0.332882 0.313516
vt 0.490000 1.000000
vt 0.334013 0.688746
vt 2.000000 0.000000
vt 0.499443 0.312385
vt 2.000000 1.000000
vt 0.500574 0.687615
s 0
usemtl マテリアル.019
f 89/217/34 90/220/34 92/226/34 91/223/34
f 91/224/35 92/227/35 96/236/35 95/234/35
f 95/233/36 96/235/36 94/231/36 93/229/36
f 93/230/35 94/232/35 90/221/35 89/218/35
f 91/225/35 95/234/35 93/230/35 89/219/35
f 96/236/35 92/228/35 90/222/35 94/232/35
o 立方体.019
v -46.000000 0.000000 -2.000000
v -46.000000 6.000000 -2.000000
v -46.000000 0.000000 -2.000000
v -46.000000 6.000000 -2.000000
v -34.000000 0.000000 -2.000000
v -34.000000 6.000000 -2.000000
v -34.000000 0.000000 -2.000000
v -34.000000 6.000000 -2.000000
vn -0.0000 -0.0000 -0.0000
vn -0.0000 -0.0000 -1.0000
vn -0.0000 -0.0000 1.0000
vt 0.832564 0.310123
vt 0.490000 0.000000
vt 0.331751 -0.061715
vt 0.833696 0.685353
vt 0.490000 1.000000
vt 0.335144 1.063977
vt 0.666004 0.311254
vt 2.000000 0.000000
vt 0.498312 -0.062846
vt 0.667135 0.686484
vt 2.000000 1.000000
vt 0.501705 1.062846
vt 2.000000 0.000000
vt 0.332882 0.313516
vt 2.000000 1.000000
vt 0.334013 0.688746
vt 0.490000 0.000000
vt 0.499443 0.312385
vt 0.490000 1.000000
vt 0.500574 0.687615
s 0
usemtl マテリアル.017
f 97/237/37 98/240/37 100/246/37 99/243/37
f 99/244/38 100/247/38 104/255/38 103/253/38
f 103/254/37 104/256/37 102/252/37 101/250/37
f 101/249/39 102/251/39 98/241/39 97/238/39
f 99/245/37 103/254/37 101/250/37 97/239/37
f 104/256/37 100/248/37 98/242/37 102/252/37
o 立方体.020
v -58.000000 0.000000 -2.000000
v -58.000000 6.000000 -2.000000
v -58.000000 0.000000 -2.000000
v -58.000000 6.000000 -2.000000
v -50.000000 0.000000 -2.000000
v -50.000000 6.000000 -2.000000
v -50.000000 0.000000 -2.000000
v -50.000000 6.000000 -2.000000
vn -0.0000 -0.0000 -0.0000
vn -0.0000 -0.0000 -1.0000
vn -0.0000 -0.0000 1.0000
vt 0.832564 0.310123
vt 0.000000 0.000000
vt 0.331751 -0.061715
vt 0.833696 0.685353
vt 0.000000 1.000000
vt 0.335144 1.063977
vt 0.666004 0.311254
vt 1.000000 0.000000
vt 0.498312 -0.062846
vt 0.667135 0.686484
vt 1.000000 1.000000
vt 0.501705 1.062846
vt 1.000000 0.000000
vt 0.332882 0.313516
vt 1.000000 1.000000
vt 0.334013 0.688746
vt 0.000000 0.000000
vt 0.499443 0.312385
vt 0.000000 1.000000
vt 0.500574 0.687615
s 0
usemtl マテリアル.018
f 105/257/40 106/260/40 108/266/40 107/263/40
f 107/264/41 108/267/41 112/275/41 111/273/41
f 111/274/40 112/276/40 110/272/40 109/270/40
f 109/269/42 110/271/42 106/261/42 105/258/42
f 107/265/40 111/274/40 109/270/40 105/259/40
f 112/276/40 108/268/40 106/262/40 110/272/40
