# Blender 3.5.0
# www.blender.org
mtllib Stage3.mtl
o Cube.011
v 18.000000 6.000000 -10.000000
v 18.000000 0.000000 -10.000000
v 18.000000 6.000000 -10.000000
v 18.000000 0.000000 -10.000000
v -18.000000 6.000000 -10.000000
v -18.000000 0.000000 -10.000000
v -18.000000 6.000000 -10.000000
v -18.000000 0.000000 -10.000000
vn -0.0000 -0.0000 -0.0000
vn -0.0000 -0.0000 1.0000
vn -0.0000 -0.0000 -1.0000
vt 0.499983 1.000003
vt 0.489983 1.000003
vt 0.500017 0.000003
vt 0.490017 0.000000
vt 4.999983 0.999969
vt 0.333421 0.999969
vt 5.000017 0.000000
vt 0.333454 -0.000030
vt 0.499950 1.637652
vt 0.666546 1.000036
vt 4.999983 1.000036
vt 0.666579 0.000037
vt 0.500050 -0.611260
vt 5.000017 0.000000
vt 0.333387 1.637618
vt 0.489983 0.999936
vt 0.833108 1.000070
vt 0.490017 0.000000
vt 0.833142 0.000070
vt 0.333488 -0.611293
s 0
usemtl Material.012
f 1/1/1 5/9/1 7/15/1 3/6/1
f 4/7/2 3/5/2 7/16/2 8/18/2
f 8/19/1 7/17/1 5/10/1 6/12/1
f 6/13/1 2/3/1 4/8/1 8/20/1
f 2/3/1 1/1/1 3/6/1 4/8/1
f 6/14/3 5/11/3 1/2/3 2/4/3
o Cube.001
v 18.000000 6.000000 2.000000
v 18.000000 0.000000 2.000000
v 18.000000 6.000000 10.000000
v 18.000000 0.000000 10.000000
v 18.000000 6.000000 2.000000
v 18.000000 0.000000 2.000000
v 18.000000 6.000000 10.000000
v 18.000000 0.000000 10.000000
vn -0.0000 -0.0000 -0.0000
vn -1.0000 -0.0000 -0.0000
vn 1.0000 -0.0000 -0.0000
vt 0.999983 1.000003
vt 0.499983 1.000003
vt 1.000017 0.000000
vt 0.500017 0.000003
vt 0.333421 0.999969
vt 0.000000 0.999969
vt 0.333454 -0.000030
vt 0.000000 0.000000
vt 0.499950 1.637652
vt 0.000000 1.000036
vt 0.666546 1.000036
vt 0.000000 0.000000
vt 0.500050 -0.611260
vt 0.666579 0.000037
vt 0.333387 1.637618
vt 0.166858 0.999936
vt 1.000000 1.000070
vt 0.166892 -0.000063
vt 1.000000 0.000000
vt 0.333488 -0.611293
s 0
usemtl Material.014
f 9/22/4 13/29/4 15/35/4 11/25/4
f 12/27/4 11/25/4 15/36/4 16/38/4
f 16/39/5 15/37/5 13/30/5 14/32/5
f 14/33/4 10/24/4 12/27/4 16/40/4
f 10/23/6 9/21/6 11/26/6 12/28/6
f 14/34/4 13/31/4 9/22/4 10/24/4
o Cube.002
v 18.000000 6.000000 10.000000
v 18.000000 0.000000 10.000000
v 18.000000 6.000000 10.000000
v 18.000000 0.000000 10.000000
v -18.000000 6.000000 10.000000
v -18.000000 0.000000 10.000000
v -18.000000 6.000000 10.000000
v -18.000000 0.000000 10.000000
vn -0.0000 -0.0000 -0.0000
vn -0.0000 -0.0000 1.0000
vn -0.0000 -0.0000 -1.0000
vt 0.499983 1.000003
vt 0.489983 1.000003
vt 0.500017 0.000003
vt 0.490017 0.000000
vt 4.999983 0.999969
vt 0.333421 0.999969
vt 5.000017 0.000000
vt 0.333454 -0.000030
vt 0.499950 1.637652
vt 0.666546 1.000036
vt 4.999983 1.000036
vt 0.666579 0.000037
vt 0.500050 -0.611260
vt 5.000017 0.000000
vt 0.333387 1.637618
vt 0.489983 0.999936
vt 0.833108 1.000070
vt 0.490017 0.000000
vt 0.833142 0.000070
vt 0.333488 -0.611293
s 0
usemtl Material.015
f 17/41/7 21/49/7 23/55/7 19/46/7
f 20/47/8 19/45/8 23/56/8 24/58/8
f 24/59/7 23/57/7 21/50/7 22/52/7
f 22/53/7 18/43/7 20/48/7 24/60/7
f 18/43/7 17/41/7 19/46/7 20/48/7
f 22/54/9 21/51/9 17/42/9 18/44/9
o Cube.003
v 18.000000 6.000000 -10.000000
v 18.000000 0.000000 -10.000000
v 18.000000 6.000000 -2.000000
v 18.000000 0.000000 -2.000000
v 18.000000 6.000000 -10.000000
v 18.000000 0.000000 -10.000000
v 18.000000 6.000000 -2.000000
v 18.000000 0.000000 -2.000000
vn -0.0000 -0.0000 -0.0000
vn -1.0000 -0.0000 -0.0000
vn 1.0000 -0.0000 -0.0000
vt 0.999983 1.000003
vt 0.499983 1.000003
vt 1.000017 0.000000
vt 0.500017 0.000003
vt 0.333421 0.999969
vt 0.000000 0.999969
vt 0.333454 -0.000030
vt 0.000000 0.000000
vt 0.499950 1.637652
vt 0.000000 1.000036
vt 0.666546 1.000036
vt 0.000000 0.000000
vt 0.500050 -0.611260
vt 0.666579 0.000037
vt 0.333387 1.637618
vt 0.166858 0.999936
vt 1.000000 1.000070
vt 0.166892 -0.000063
vt 1.000000 0.000000
vt 0.333488 -0.611293
s 0
usemtl Material.016
f 25/62/10 29/69/10 31/75/10 27/65/10
f 28/67/10 27/65/10 31/76/10 32/78/10
f 32/79/11 31/77/11 29/70/11 30/72/11
f 30/73/10 26/64/10 28/67/10 32/80/10
f 26/63/12 25/61/12 27/66/12 28/68/12
f 30/74/10 29/71/10 25/62/10 26/64/10
o Cube.004
v -18.000000 6.000000 -10.000000
v -18.000000 0.000000 -10.000000
v -18.000000 6.000000 -2.000000
v -18.000000 0.000000 -2.000000
v -18.000000 6.000000 -10.000000
v -18.000000 0.000000 -10.000000
v -18.000000 6.000000 -2.000000
v -18.000000 0.000000 -2.000000
vn -0.0000 -0.0000 -0.0000
vn -1.0000 -0.0000 -0.0000
vn 1.0000 -0.0000 -0.0000
vt 0.999983 1.000003
vt 0.499983 1.000003
vt 1.000017 0.000000
vt 0.500017 0.000003
vt 0.333421 0.999969
vt 0.000000 0.999969
vt 0.333454 -0.000030
vt 0.000000 0.000000
vt 0.499950 1.637652
vt 0.000000 1.000036
vt 0.666546 1.000036
vt 0.000000 0.000000
vt 0.500050 -0.611260
vt 0.666579 0.000037
vt 0.333387 1.637618
vt 0.166858 0.999936
vt 1.000000 1.000070
vt 0.166892 -0.000063
vt 1.000000 0.000000
vt 0.333488 -0.611293
s 0
usemtl Material.017
f 33/82/13 37/89/13 39/95/13 35/85/13
f 36/87/13 35/85/13 39/96/13 40/98/13
f 40/99/14 39/97/14 37/90/14 38/92/14
f 38/93/13 34/84/13 36/87/13 40/100/13
f 34/83/15 33/81/15 35/86/15 36/88/15
f 38/94/13 37/91/13 33/82/13 34/84/13
o Cube.005
v -10.000000 6.000000 -10.000000
v -10.000000 0.000000 -10.000000
v -10.000000 6.000000 -6.000000
v -10.000000 0.000000 -6.000000
v -10.000000 6.000000 -10.000000
v -10.000000 0.000000 -10.000000
v -10.000000 6.000000 -6.000000
v -10.000000 0.000000 -6.000000
vn -0.0000 -0.0000 -0.0000
vn -1.0000 -0.0000 -0.0000
vn 1.0000 -0.0000 -0.0000
vt 1.000000 1.000003
vt 0.499983 1.000003
vt 1.000000 0.000000
vt 0.500017 0.000003
vt 0.333421 0.999969
vt 0.490000 0.999969
vt 0.333454 -0.000030
vt 0.490000 0.000000
vt 0.499950 1.637652
vt 0.490000 1.000036
vt 0.666546 1.000036
vt 0.490000 0.000000
vt 0.500050 -0.611260
vt 0.666579 0.000037
vt 0.333387 1.637618
vt 0.166858 0.999936
vt 1.000000 1.000070
vt 0.166892 -0.000063
vt 1.000000 0.000000
vt 0.333488 -0.611293
s 0
usemtl Material.018
f 41/102/16 45/109/16 47/115/16 43/105/16
f 44/107/16 43/105/16 47/116/16 48/118/16
f 48/119/17 47/117/17 45/110/17 46/112/17
f 46/113/16 42/104/16 44/107/16 48/120/16
f 42/103/18 41/101/18 43/106/18 44/108/18
f 46/114/16 45/111/16 41/102/16 42/104/16
o Cube.006
v -18.000000 6.000000 2.000000
v -18.000000 0.000000 2.000000
v -18.000000 6.000000 10.000000
v -18.000000 0.000000 10.000000
v -18.000000 6.000000 2.000000
v -18.000000 0.000000 2.000000
v -18.000000 6.000000 10.000000
v -18.000000 0.000000 10.000000
vn -0.0000 -0.0000 -0.0000
vn -1.0000 -0.0000 -0.0000
vn 1.0000 -0.0000 -0.0000
vt 0.999983 1.000003
vt 0.499983 1.000003
vt 1.000017 0.000000
vt 0.500017 0.000003
vt 0.333421 0.999969
vt 0.000000 0.999969
vt 0.333454 -0.000030
vt 0.000000 0.000000
vt 0.499950 1.637652
vt 0.000000 1.000036
vt 0.666546 1.000036
vt 0.000000 0.000000
vt 0.500050 -0.611260
vt 0.666579 0.000037
vt 0.333387 1.637618
vt 0.166858 0.999936
vt 1.000000 1.000070
vt 0.166892 -0.000063
vt 1.000000 0.000000
vt 0.333488 -0.611293
s 0
usemtl Material.019
f 49/122/19 53/129/19 55/135/19 51/125/19
f 52/127/19 51/125/19 55/136/19 56/138/19
f 56/139/20 55/137/20 53/130/20 54/132/20
f 54/133/19 50/124/19 52/127/19 56/140/19
f 50/123/21 49/121/21 51/126/21 52/128/21
f 54/134/19 53/131/19 49/122/19 50/124/19
o Cube.007
v -10.000000 6.000000 6.000000
v -10.000000 0.000000 6.000000
v -10.000000 6.000000 10.000000
v -10.000000 0.000000 10.000000
v -10.000000 6.000000 6.000000
v -10.000000 0.000000 6.000000
v -10.000000 6.000000 10.000000
v -10.000000 0.000000 10.000000
vn -0.0000 -0.0000 -0.0000
vn -1.0000 -0.0000 -0.0000
vn 1.0000 -0.0000 -0.0000
vt 1.000000 1.000003
vt 0.499983 1.000003
vt 1.000000 0.000000
vt 0.500017 0.000003
vt 0.333421 0.999969
vt 0.490000 0.999969
vt 0.333454 -0.000030
vt 0.490000 0.000000
vt 0.499950 1.637652
vt 0.490000 1.000036
vt 0.666546 1.000036
vt 0.490000 0.000000
vt 0.500050 -0.611260
vt 0.666579 0.000037
vt 0.333387 1.637618
vt 0.166858 0.999936
vt 1.000000 1.000070
vt 0.166892 -0.000063
vt 1.000000 0.000000
vt 0.333488 -0.611293
s 0
usemtl Material.020
f 57/142/22 61/149/22 63/155/22 59/145/22
f 60/147/22 59/145/22 63/156/22 64/158/22
f 64/159/23 63/157/23 61/150/23 62/152/23
f 62/153/22 58/144/22 60/147/22 64/160/22
f 58/143/24 57/141/24 59/146/24 60/148/24
f 62/154/22 61/151/22 57/142/22 58/144/22
o Cube.008
v -10.000000 6.000000 -2.000000
v -10.000000 0.000000 -2.000000
v -10.000000 6.000000 2.000000
v -10.000000 0.000000 2.000000
v -10.000000 6.000000 -2.000000
v -10.000000 0.000000 -2.000000
v -10.000000 6.000000 2.000000
v -10.000000 0.000000 2.000000
vn -0.0000 -0.0000 -0.0000
vn -1.0000 -0.0000 -0.0000
vn 1.0000 -0.0000 -0.0000
vt 1.000000 1.000003
vt 0.499983 1.000003
vt 1.000000 0.000000
vt 0.500017 0.000003
vt 0.333421 0.999969
vt 0.490000 0.999969
vt 0.333454 -0.000030
vt 0.490000 0.000000
vt 0.499950 1.637652
vt 0.490000 1.000036
vt 0.666546 1.000036
vt 0.490000 0.000000
vt 0.500050 -0.611260
vt 0.666579 0.000037
vt 0.333387 1.637618
vt 0.166858 0.999936
vt 1.000000 1.000070
vt 0.166892 -0.000063
vt 1.000000 0.000000
vt 0.333488 -0.611293
s 0
usemtl Material.021
f 65/162/25 69/169/25 71/175/25 67/165/25
f 68/167/25 67/165/25 71/176/25 72/178/25
f 72/179/26 71/177/26 69/170/26 70/172/26
f 70/173/25 66/164/25 68/167/25 72/180/25
f 66/163/27 65/161/27 67/166/27 68/168/27
f 70/174/25 69/171/25 65/162/25 66/164/25
o Cube.009
v 6.000000 6.000000 -10.000000
v 6.000000 0.000000 -10.000000
v 6.000000 6.000000 -6.000000
v 6.000000 0.000000 -6.000000
v 6.000000 6.000000 -10.000000
v 6.000000 0.000000 -10.000000
v 6.000000 6.000000 -6.000000
v 6.000000 0.000000 -6.000000
vn -0.0000 -0.0000 -0.0000
vn -1.0000 -0.0000 -0.0000
vn 1.0000 -0.0000 -0.0000
vt 1.000000 1.000003
vt 0.499983 1.000003
vt 1.000000 0.000000
vt 0.500017 0.000003
vt 0.333421 0.999969
vt 0.490000 0.999969
vt 0.333454 -0.000030
vt 0.490000 0.000000
vt 0.499950 1.637652
vt 0.490000 1.000036
vt 0.666546 1.000036
vt 0.490000 0.000000
vt 0.500050 -0.611260
vt 0.666579 0.000037
vt 0.333387 1.637618
vt 0.166858 0.999936
vt 1.000000 1.000070
vt 0.166892 -0.000063
vt 1.000000 0.000000
vt 0.333488 -0.611293
s 0
usemtl Material.022
f 73/182/28 77/189/28 79/195/28 75/185/28
f 76/187/28 75/185/28 79/196/28 80/198/28
f 80/199/29 79/197/29 77/190/29 78/192/29
f 78/193/28 74/184/28 76/187/28 80/200/28
f 74/183/30 73/181/30 75/186/30 76/188/30
f 78/194/28 77/191/28 73/182/28 74/184/28
o Cube.010
v 6.000000 6.000000 -2.000000
v 6.000000 0.000000 -2.000000
v 6.000000 6.000000 10.000000
v 6.000000 0.000000 10.000000
v 6.000000 6.000000 -2.000000
v 6.000000 0.000000 -2.000000
v 6.000000 6.000000 10.000000
v 6.000000 0.000000 10.000000
vn -0.0000 -0.0000 -0.0000
vn -1.0000 -0.0000 -0.0000
vn 1.0000 -0.0000 -0.0000
vt 1.999983 1.000003
vt 0.499983 1.000003
vt 2.000017 0.000000
vt 0.500017 0.000003
vt 0.333421 0.999969
vt 0.490000 0.999969
vt 0.333454 -0.000030
vt 0.490000 0.000000
vt 0.499950 1.637652
vt 0.490000 1.000036
vt 0.666546 1.000036
vt 0.490000 0.000000
vt 0.500050 -0.611260
vt 0.666579 0.000037
vt 0.333387 1.637618
vt 0.166858 0.999936
vt 2.000000 1.000070
vt 0.166892 -0.000063
vt 2.000000 0.000000
vt 0.333488 -0.611293
s 0
usemtl Material.023
f 81/202/31 85/209/31 87/215/31 83/205/31
f 84/207/31 83/205/31 87/216/31 88/218/31
f 88/219/32 87/217/32 85/210/32 86/212/32
f 86/213/31 82/204/31 84/207/31 88/220/31
f 82/203/33 81/201/33 83/206/33 84/208/33
f 86/214/31 85/211/31 81/202/31 82/204/31
o Cube.012
v 6.000000 6.000000 0.000000
v 6.000000 0.000000 0.000000
v 6.000000 6.000000 0.000000
v 6.000000 0.000000 0.000000
v -10.000000 6.000000 0.000000
v -10.000000 0.000000 0.000000
v -10.000000 6.000000 0.000000
v -10.000000 0.000000 0.000000
vn -0.0000 -0.0000 -0.0000
vn -0.0000 -0.0000 1.0000
vn -0.0000 -0.0000 -1.0000
vt 0.499983 1.000003
vt 0.000000 1.000003
vt 0.500017 0.000003
vt 0.000000 0.000000
vt 1.999983 0.999969
vt 0.333421 0.999969
vt 2.000017 0.000000
vt 0.333454 -0.000030
vt 0.499950 1.637652
vt 0.666546 1.000036
vt 1.999983 1.000036
vt 0.666579 0.000037
vt 0.500050 -0.611260
vt 2.000017 0.000000
vt 0.333387 1.637618
vt 0.000000 0.999936
vt 0.833108 1.000070
vt 0.000000 0.000000
vt 0.833142 0.000070
vt 0.333488 -0.611293
s 0
usemtl Material.024
f 89/221/34 93/229/34 95/235/34 91/226/34
f 92/227/35 91/225/35 95/236/35 96/238/35
f 96/239/34 95/237/34 93/230/34 94/232/34
f 94/233/34 90/223/34 92/228/34 96/240/34
f 90/223/34 89/221/34 91/226/34 92/228/34
f 94/234/36 93/231/36 89/222/36 90/224/36
