# Blender 3.5.0
# www.blender.org
mtllib Load1.mtl
o Cube
v 2.000000 6.000000 -6.000000
v 2.000000 0.000000 -6.000000
v 2.000000 6.000000 6.000000
v 2.000000 0.000000 6.000000
v 2.000000 6.000000 -6.000000
v 2.000000 0.000000 -6.000000
v 2.000000 6.000000 6.000000
v 2.000000 0.000000 6.000000
vn -0.0000 -0.0000 -0.0000
vn -1.0000 -0.0000 -0.0000
vn 1.0000 -0.0000 -0.0000
vt 2.000422 0.999916
vt 0.500421 0.999916
vt 1.999578 0.000000
vt 0.499578 -0.000084
vt 0.333860 1.000759
vt 0.490000 1.000000
vt 0.333017 0.000759
vt 0.490000 0.000000
vt 0.501265 1.384329
vt 0.490000 1.000000
vt 0.666983 0.999073
vt 0.490000 0.000000
vt 0.498735 -0.370146
vt 0.666140 -0.000927
vt 0.334703 1.385172
vt 0.167298 1.001602
vt 2.000000 1.000000
vt 0.166455 0.001602
vt 2.000000 0.000000
vt 0.332173 -0.369303
s 0
usemtl Material
f 1/2/1 5/9/1 7/15/1 3/5/1
f 4/7/1 3/5/1 7/16/1 8/18/1
f 8/19/2 7/17/2 5/10/2 6/12/2
f 6/13/1 2/4/1 4/7/1 8/20/1
f 2/3/3 1/1/3 3/6/3 4/8/3
f 6/14/1 5/11/1 1/2/1 2/4/1
o Cube.001
v -2.000000 6.000000 -6.000000
v -2.000000 0.000000 -6.000000
v -2.000000 6.000000 6.000000
v -2.000000 0.000000 6.000000
v -2.000000 6.000000 -6.000000
v -2.000000 0.000000 -6.000000
v -2.000000 6.000000 6.000000
v -2.000000 0.000000 6.000000
vn -0.0000 -0.0000 -0.0000
vn -1.0000 -0.0000 -0.0000
vn 1.0000 -0.0000 -0.0000
vt 2.000422 0.999916
vt 0.500421 0.999916
vt 1.999578 0.000000
vt 0.499578 -0.000084
vt 0.333860 1.000759
vt 0.490000 1.000000
vt 0.333017 0.000759
vt 0.490000 0.000000
vt 0.501265 1.384329
vt 0.490000 1.000000
vt 0.666983 0.999073
vt 0.490000 0.000000
vt 0.498735 -0.370146
vt 0.666140 -0.000927
vt 0.334703 1.385172
vt 0.167298 1.001602
vt 2.000000 1.000000
vt 0.166455 0.001602
vt 2.000000 0.000000
vt 0.332173 -0.369303
s 0
usemtl Material.001
f 9/22/4 13/29/4 15/35/4 11/25/4
f 12/27/4 11/25/4 15/36/4 16/38/4
f 16/39/5 15/37/5 13/30/5 14/32/5
f 14/33/4 10/24/4 12/27/4 16/40/4
f 10/23/6 9/21/6 11/26/6 12/28/6
f 14/34/4 13/31/4 9/22/4 10/24/4
