# Blender 3.5.0
# www.blender.org
mtllib Robot5.mtl
o 立方体.002
v -1.590000 1.700000 -0.300000
v -1.590000 2.300000 -0.300000
v -0.990000 1.700000 -0.300000
v -0.990000 2.300000 -0.300000
v -1.590000 1.700000 0.300000
v -1.590000 2.300000 0.300000
v -0.990000 1.700000 0.300000
v -0.990000 2.300000 0.300000
vn -0.0000 -0.0000 -1.0000
vn 1.0000 -0.0000 -0.0000
vn -0.0000 -0.0000 1.0000
vn -1.0000 -0.0000 -0.0000
vn -0.0000 -1.0000 -0.0000
vn -0.0000 1.0000 -0.0000
vt 0.363341 0.101272
vt 0.333579 0.178708
vt 0.333579 0.285905
vt 0.363341 0.131034
vt 0.333579 0.208470
vt 0.285905 0.363341
vt 0.333579 0.101272
vt 0.131034 0.333579
vt 0.333579 0.256144
vt 0.333579 0.131034
vt 0.131034 0.363341
vt 0.285905 0.333579
vt 0.178708 0.333579
vt 0.363341 0.178708
vt 0.363341 0.285905
vt 0.178708 0.363341
vt 0.363341 0.208470
vt 0.256144 0.363341
vt 0.101272 0.333579
vt 0.208470 0.333579
vt 0.363341 0.256144
vt 0.101272 0.363341
vt 0.208470 0.363341
vt 0.256144 0.333579
s 0
usemtl マテリアル.020
f 1/1/1 2/4/1 4/10/1 3/7/1
f 3/8/2 4/11/2 8/22/2 7/19/2
f 7/20/3 8/23/3 6/16/3 5/13/3
f 5/14/4 6/17/4 2/5/4 1/2/4
f 3/9/5 7/21/5 5/15/5 1/3/5
f 8/24/6 4/12/6 2/6/6 6/18/6
o 立方体.010
v 0.990000 1.700000 -0.300000
v 0.990000 2.300000 -0.300000
v 1.590000 1.700000 -0.300000
v 1.590000 2.300000 -0.300000
v 0.990000 1.700000 0.300000
v 0.990000 2.300000 0.300000
v 1.590000 1.700000 0.300000
v 1.590000 2.300000 0.300000
vn -0.0000 -0.0000 -1.0000
vn 1.0000 -0.0000 -0.0000
vn -0.0000 -0.0000 1.0000
vn -1.0000 -0.0000 -0.0000
vn -0.0000 -1.0000 -0.0000
vn -0.0000 1.0000 -0.0000
vt 0.363341 0.643321
vt 0.411015 0.643321
vt 0.643321 0.518212
vt 0.363341 0.673083
vt 0.411015 0.673083
vt 0.518212 0.673083
vt 0.333579 0.643321
vt 0.673083 0.333579
vt 0.643321 0.488450
vt 0.333579 0.673083
vt 0.673083 0.363341
vt 0.518212 0.643321
vt 0.643321 0.411015
vt 0.440776 0.643321
vt 0.673083 0.518212
vt 0.643321 0.440776
vt 0.440776 0.673083
vt 0.488450 0.673083
vt 0.643321 0.333579
vt 0.673083 0.411015
vt 0.673083 0.488450
vt 0.643321 0.363341
vt 0.673083 0.440776
vt 0.488450 0.643321
s 0
usemtl マテリアル.019
f 9/25/7 10/28/7 12/34/7 11/31/7
f 11/32/8 12/35/8 16/46/8 15/43/8
f 15/44/9 16/47/9 14/40/9 13/37/9
f 13/38/10 14/41/10 10/29/10 9/26/10
f 11/33/11 15/45/11 13/39/11 9/27/11
f 16/48/12 12/36/12 10/30/12 14/42/12
