# Blender 3.5.0
# www.blender.org
mtllib Craft.mtl
o Cube
v 0.500000 0.400000 -0.300000
v 0.500000 0.000000 -0.300000
v 0.500000 0.400000 0.300000
v 0.500000 0.000000 0.300000
v -0.500000 0.400000 -0.300000
v -0.500000 0.000000 -0.300000
v -0.500000 0.400000 0.300000
v -0.500000 0.000000 0.300000
vn -0.0000 1.0000 -0.0000
vn -0.0000 -0.0000 1.0000
vn -1.0000 -0.0000 -0.0000
vn -0.0000 -1.0000 -0.0000
vn 1.0000 -0.0000 -0.0000
vn -0.0000 -0.0000 -1.0000
vt 0.000000 0.000000
vt 1.000000 1.000000
vt 0.000000 1.000000
vt 2.000000 0.000000
vt 1.000000 0.000000
vt 0.000000 0.000000
vt 1.999747 1.000253
vt 0.000000 1.000000
vt 2.000253 0.000000
vt 2.000000 1.000000
vt 0.000000 0.000000
vt 2.000000 0.000000
vt 0.000000 1.000000
vt 2.000000 1.000000
vt 0.000000 0.000000
vt 2.000000 0.000000
vt 2.000000 1.000000
vt 0.000000 0.999747
vt 1.000000 1.000000
vt 0.000000 0.000000
vt 1.000000 0.000000
vt 0.000000 1.000000
s 0
usemtl Material
f 1/1/1 5/12/1 7/17/1 3/8/1
f 4/9/2 3/7/2 7/18/2 8/20/2
f 8/21/3 7/19/3 5/13/3 6/15/3
f 6/15/4 2/4/4 4/10/4 8/22/4
f 2/5/5 1/2/5 3/8/5 4/11/5
f 6/16/6 5/14/6 1/3/6 2/6/6
o Cube.001
v 0.200000 1.000000 -0.100000
v 0.200000 0.400000 -0.100000
v 0.200000 1.000000 0.100000
v 0.200000 0.400000 0.100000
v -0.200000 1.000000 -0.100000
v -0.200000 0.400000 -0.100000
v -0.200000 1.000000 0.100000
v -0.200000 0.400000 0.100000
vn -0.0000 1.0000 -0.0000
vn -0.0000 -0.0000 1.0000
vn -1.0000 -0.0000 -0.0000
vn -0.0000 -1.0000 -0.0000
vn 1.0000 -0.0000 -0.0000
vn -0.0000 -0.0000 -1.0000
vt 0.499979 0.625000
vt 1.000000 1.000000
vt 0.000000 1.000000
vt 0.500021 0.375000
vt 1.000000 0.000000
vt 0.000000 0.000000
vt 0.249979 0.624957
vt 1.000000 1.000000
vt 0.500000 1.000000
vt 1.000000 0.000000
vt 0.250021 0.374957
vt 0.500000 0.000000
vt 0.499936 0.875000
vt 0.499979 1.000000
vt 1.000000 1.000000
vt 0.500021 0.000000
vt 0.500064 0.125000
vt 1.000000 0.000000
vt 0.249936 0.874957
vt 0.000000 1.000000
vt 0.999979 1.000000
vt 0.000000 0.000000
vt 1.000021 0.000000
vt 0.250064 0.124957
s 0
usemtl Material.002
f 9/23/7 13/35/7 15/41/7 11/29/7
f 12/32/8 11/30/8 15/42/8 16/44/8
f 16/45/9 15/43/9 13/36/9 14/38/9
f 14/39/10 10/26/10 12/33/10 16/46/10
f 10/27/11 9/24/11 11/31/11 12/34/11
f 14/40/12 13/37/12 9/25/12 10/28/12
o Cube.002
v 0.700000 1.400000 -0.300000
v 0.700000 1.000000 -0.300000
v 0.700000 1.400000 0.300000
v 0.700000 1.000000 0.300000
v -0.700000 1.400000 -0.300000
v -0.700000 1.000000 -0.300000
v -0.700000 1.400000 0.300000
v -0.700000 1.000000 0.300000
vn -0.0000 1.0000 -0.0000
vn -0.0000 -0.0000 1.0000
vn -1.0000 -0.0000 -0.0000
vn -0.0000 -1.0000 -0.0000
vn 1.0000 -0.0000 -0.0000
vn -0.0000 -0.0000 -1.0000
vt 0.000235 -0.000235
vt 1.000000 1.000000
vt 0.000000 0.999726
vt 1.000000 2.000000
vt 1.000000 0.000000
vt 0.000000 0.000000
vt -0.000235 0.999765
vt 2.000000 1.000000
vt 0.000000 1.000000
vt 2.000000 0.000000
vt 0.000000 2.000000
vt 0.000000 0.000000
vt 2.000235 0.000235
vt -0.000274 0.999726
vt 1.999726 1.000274
vt 0.000274 0.000000
vt 1.000000 0.000000
vt 2.000274 0.000000
vt 1.999765 1.000235
vt 0.000000 1.000000
vt 0.999725 1.000274
vt 1.000273 0.000000
vt 0.000000 0.000000
s 0
usemtl Material.003
f 17/47/13 21/59/13 23/65/13 19/53/13
f 20/56/14 19/54/14 23/66/14 24/69/14
f 24/68/15 23/67/15 21/60/15 22/62/15
f 22/63/16 18/50/16 20/57/16 24/69/16
f 18/51/17 17/48/17 19/55/17 20/58/17
f 22/64/18 21/61/18 17/49/18 18/52/18
